<?xml version="1.0" standalone="no"?>
<!DOCTYPE svg PUBLIC "-//W3C//DTD SVG 1.1//EN" "http://www.w3.org/Graphics/SVG/1.1/DTD/svg11.dtd" >
<svg xmlns="http://www.w3.org/2000/svg">
<metadata>
This is a custom SVG webfont generated by Font Squirrel.
Copyright   : Digitized data  2007 Ascender Corporation All rights reserved
Designer    : Steve Matteson
Foundry     : Ascender Corporation
Foundry URL : httpwwwascendercorpcom
</metadata>
<defs>
<font id="webfontPLmjSGIP" horiz-adv-x="1024" >
<font-face units-per-em="2048" ascent="1638" descent="-410" />
<missing-glyph horiz-adv-x="512" />
<glyph unicode=" "  horiz-adv-x="512" />
<glyph unicode="&#x09;" horiz-adv-x="512" />
<glyph unicode="&#xa0;" horiz-adv-x="512" />
<glyph unicode="!" horiz-adv-x="681" d="M158 92q0 23 10 47.5t24.5 39t39 24.5t47 10t47 -10t39.5 -25q16 -18 26 -39q8 -18 8 -47t-8 -47q-10 -20 -26.5 -38.5t-38.5 -26.5q-18 -8 -47 -8.5t-48 8.5q-23 8 -38 26q-14 14 -24.5 38.5t-10.5 47.5zM268 389l107 952h217l-230 -952h-94z" />
<glyph unicode="&#x22;" horiz-adv-x="858" d="M260 860l25 481h196l-145 -481h-76zM645 860l25 481h196l-145 -481h-76z" />
<glyph unicode="#" d="M16 422l19 102h190l113 307h-250l18 103h269l147 407h105l-148 -407h309l148 407h104l-147 -407h164l-19 -103h-182l-111 -307h238l-16 -102h-260l-154 -422h-104l153 422h-309l-154 -422h-104l153 422h-172zM332 524h307l113 307h-310z" />
<glyph unicode="$" d="M25 74l51 297h65v-191q14 -20 43 -45q23 -20 60 -37q43 -20 73 -26q45 -10 86 -11l103 578l-109 57q-53 29 -98 72t-72 94q-27 53 -26 127q0 96 28 160q31 68 86 111q59 47 135 69.5t183 26.5l22 127h82l-22 -127q82 -2 149 -13q63 -8 127 -24l-49 -281h-65l-5 172 q-31 25 -71 39q-39 14 -103 21l-84 -484q84 -45 111 -61q55 -33 106 -80q45 -43 78 -100q31 -55 31 -131q0 -197 -117 -308q-115 -109 -352 -124l-22 -138h-82l22 136q-115 2 -211 28q-83 23 -153 66zM375 1024q0 -35 12 -66q10 -25 35 -53q20 -25 51 -45q8 -4 66 -37 l77 447q-70 -6 -108 -25q-47 -23 -76 -53q-27 -29 -43 -76q-14 -41 -14 -92zM487 66q133 18 205 98q70 78 70 215q0 47 -14 78q-14 35 -39 57q-29 29 -58 47l-69 39z" />
<glyph unicode="%" horiz-adv-x="1705" d="M117 885q0 35 2 53q4 37 8 57q31 176 129 273q98 94 262 94q133 0 203 -66q68 -63 67 -192q0 -57 -10 -109q-31 -182 -129 -276q-100 -96 -266 -96q-137 0 -201 67q-65 70 -65 195zM209 -20l1192 1382h110l-1194 -1382h-108zM266 854q0 -72 31 -117q29 -41 98 -41 q51 0 86 21q37 20 64 57q29 37 47 94q18 53 31 127q12 71 12 129q0 78 -31 121t-104 43q-43 0 -84 -20q-37 -18 -61.5 -55t-43.5 -93q-14 -43 -28 -125q-2 -6 -6.5 -34.5l-6.5 -40.5q-4 -46 -4 -66zM918 233q0 37 2 56q4 37 8 57q31 176 129 272q98 94 264 95q131 0 201 -66 q68 -66 67 -194q0 -33 -2 -52q-4 -37 -8 -55q-31 -181 -129 -276q-100 -96 -266 -97q-135 0 -200.5 65.5t-65.5 194.5zM1069 205q0 -76 28.5 -117t98.5 -41q51 0 86 21q37 23 66 59q27 35 45 92q18 53 30 127q8 51 11 68q4 41 4 59q0 78 -33 123q-31 43 -105 43 q-43 0 -83 -21q-37 -18 -62 -55t-43 -92q-14 -43 -29 -125q-8 -53 -10 -76q-4 -45 -4 -65z" />
<glyph unicode="&#x26;" horiz-adv-x="1591" d="M86 340q0 65 18 117q18 51 50 94q27 37 71 72q41 33 86 57q41 23 90 43l88 33l-38 57q-20 35 -35 66q-15 34 -25 73q-10 45 -10 84q0 74 27 133q29 63 75 105q51 45 121 65q74 23 164 23t162 -23q61 -20 108 -59q43 -37 62 -84q20 -51 20 -94q0 -74 -35 -131 q-31 -49 -92 -94q-51 -37 -125 -66q-94 -37 -141 -53l344 -402q80 113 119 189q43 86 65 182l-137 27l10 53h457l-8 -53l-145 -27q-43 -92 -48 -100q-23 -45 -65 -117q-25 -41 -82 -123q-41 -57 -94 -115l168 -194l162 -25l-11 -53h-344l-112 137q-47 -33 -91 -59 q-57 -35 -100 -51q-61 -25 -119 -35q-65 -12 -147 -12q-125 0 -207 26q-92 31 -145 74q-51 43 -82 115q-29 67 -29 145zM285 342q0 -59 18 -113q18 -51 55 -88t88 -55q57 -20 121 -20q55 0 107 12q66 16 98 31q43 20 88 49q41 27 76 61l-397 467q-45 -18 -90 -45 q-43 -27 -82 -68t-60 -96q-22 -57 -22 -135zM561 1071q0 -65 31 -123q35 -68 82 -125l110 45q53 23 88 52q37 31 60 71q20 39 20 99q0 94 -49 143t-135 49q-104 0 -155.5 -57.5t-51.5 -153.5z" />
<glyph unicode="'" horiz-adv-x="436" d="M246 860l22 481h199l-148 -481h-73z" />
<glyph unicode="(" horiz-adv-x="681" d="M72 213q0 68 6 135q8 78 20 146q35 199 90 331q63 152 142 250q92 115 198 193q119 88 258 153l-14 -84q-123 -66 -207 -157q-83 -92 -135 -203q-59 -125 -86 -234q-33 -133 -53 -249q-12 -68 -29 -185q-10 -76 -10 -178q0 -86 10 -143q12 -72 37 -131q23 -59 70 -115 q47 -57 106 -94l-14 -84q-94 55 -170 121q-70 61 -121 141q-49 76 -74 174q-24 94 -24 213z" />
<glyph unicode=")" horiz-adv-x="681" d="M-96 -436l14 84q123 66 207 157q82 90 135 205q55 115 84 234q39 160 55 250q4 18 27 184q12 88 12 176q0 76 -12 143q-14 80 -35 131q-23 59 -69 115q-45 55 -109 94l16 84q100 -61 168 -121q74 -65 123 -141.5t73.5 -171.5t24.5 -215q0 -127 -26 -278 q-35 -195 -90 -330q-61 -150 -142 -252q-86 -111 -198 -193q-123 -89 -258 -155z" />
<glyph unicode="*" d="M197 866l327 99l-327 100l63 143l315 -194l-43 327h156l-47 -327l317 190l66 -141l-334 -98l334 -97l-66 -141l-317 188l47 -325h-156l43 328l-315 -195z" />
<glyph unicode="+" horiz-adv-x="1380" d="M233 629v102h424v426h103v-426h426v-102h-426v-426h-103v426h-424z" />
<glyph unicode="," horiz-adv-x="512" d="M68 -238q96 29 139 70q47 43 47 98q0 25 -18 41q-8 8 -43 29q-25 15 -43 37q-20 25 -21 63q0 53 35 82t86 29q27 0 53 -10q23 -8 41 -31q20 -23 29 -53q10 -35 10 -74q0 -59 -18.5 -114.5t-55.5 -98.5q-41 -49 -98 -84t-143 -61v77z" />
<glyph unicode="-" horiz-adv-x="681" d="M76 406v153h532v-153h-532z" />
<glyph unicode="." horiz-adv-x="512" d="M86 92q0 29 8 47q8 20 27 39q15 15 37 25q25 10 49 10q23 0 47.5 -10t38.5 -24.5t24.5 -39t10.5 -47t-10.5 -47.5t-24.5 -39q-18 -18 -39 -26q-18 -8 -47 -9q-31 0 -49.5 8.5t-37 27t-26.5 38.5q-8 18 -8 47z" />
<glyph unicode="/" horiz-adv-x="567" d="M-94 -20l710 1370h109l-709 -1370h-110z" />
<glyph unicode="0" d="M80 399q0 59 6 131q6 74 18 146q33 176 78 295q49 129 117 215t156 131t196 45q168 0 256 -100q90 -102 90 -312q0 -55 -6 -129q-6 -76 -18 -145q-29 -162 -78 -297q-45 -123 -117 -219q-68 -88 -157 -135q-88 -45 -201 -45q-168 0 -254 104t-86 315zM250 344 q0 -59 10 -117q8 -49 33 -90q20 -35 55 -57q33 -20 82 -21q76 0 129 39q61 43 100 115q43 78 74 186q37 131 58 254q6 29 14 97q8 59 10 92l6 82q2 27 2 67q0 68 -12 123q-14 66 -33 92q-25 39 -59 56q-41 20 -84 20q-72 0 -129 -41q-55 -40 -98 -116.5t-74 -190.5 q-31 -117 -55 -256q-18 -106 -25 -182q-4 -54 -4 -152z" />
<glyph unicode="1" d="M74 0l10 53l278 27l193 1094l-289 -97l10 53l431 222h53l-225 -1272l270 -27l-10 -53h-721z" />
<glyph unicode="2" d="M0 0l27 147l213 154q80 55 186 139q92 72 158 135q63 61 118 144q47 72 76 160q29 90 29 188q0 106 -59.5 155.5t-169.5 49.5q-18 0 -60 -4q-8 0 -59 -13q-23 -6 -53 -16q-16 -6 -46 -20l-63 -164h-66l45 258q82 18 156 30q76 12 162 13q98 0 168 -21q72 -20 121 -57 q43 -33 71 -92q25 -51 25 -119q0 -95 -31 -178q-33 -88 -82 -158q-47 -68 -129 -145q-35 -33 -166 -137q-113 -90 -192 -144l-213 -151h682l-27 -154h-821z" />
<glyph unicode="3" d="M-2 41l37 283h65l13 -189q14 -12 47 -26.5t61 -22.5q45 -12 70 -16q37 -6 65 -7q102 0 166 21q68 22 111 61t63 101q20 59 21 143q0 123 -70 189q-68 63 -201 73l-114 8l14 82l146 9q74 6 129 28q52 22 86 62q31 37 47 92q14 49 14 119q0 109 -53 166q-51 55 -162 55 q-20 0 -61 -4q-4 0 -58 -13q-23 -6 -53 -16q-8 -2 -43 -20l-66 -164h-65l45 258q10 2 32.5 8t34.5 8q27 6 70 14q49 8 78 10.5t92 2.5q98 0 168 -21q80 -23 125 -57q53 -39 76 -92q25 -55 24 -121q0 -147 -86 -244q-84 -94 -270 -119q68 -8 125 -34q53 -25 94 -62 q39 -35 62 -88q20 -47 20 -110q0 -111 -41 -187q-43 -80 -114.5 -133t-172.5 -82q-94 -27 -213 -26q-49 0 -98 6q-10 2 -30.5 4t-37 4t-30.5 4q-61 12 -90 20q-54 15 -72 23z" />
<glyph unicode="4" d="M4 307l21 121l751 920h160l-160 -910h203l-23 -131h-202l-56 -307h-161l55 307h-588zM150 438h464l95 541q2 12 5 26.5l7 33l8 36t6 31.5l17 74z" />
<glyph unicode="5" d="M33 23l37 282h65l12 -188q18 -12 43 -21q31 -12 56 -16l61 -12q45 -4 64 -5q100 0 166 27q59 25 108 80q41 47 59.5 118.5t18.5 155.5q0 52 -12 99q-14 51 -41 82q-31 34 -80 55q-47 20 -127 20q-66 0 -115 -8q-70 -12 -86 -16h-96l117 665h680l-27 -153h-590l-76 -428 l41 8q6 0 21.5 3t23.5 5q16 2 58 6q20 2 75 2q104 0 185 -22q76 -20 129 -65.5t78 -104.5q25 -61 24 -137q0 -117 -35 -201q-39 -92 -104 -150q-71 -61 -172 -92q-109 -33 -238 -32q-100 0 -180 12q-77 13 -143 31z" />
<glyph unicode="6" d="M84 446q0 125 22 250q20 117 62 219q39 96 98 183q55 78 129 139q68 55 156 88q83 31 172 31q78 0 156 -17q74 -15 135 -36l-41 -232h-66l-10 141q-40 28 -86 43q-49 16 -94 17q-84 0 -158 -45q-68 -41 -125 -121q-51 -72 -90 -180q-39 -113 -59 -219l65 32q20 10 78 31 q43 15 86 25q39 8 90 8q84 0 146 -21q66 -23 108 -61q47 -43 68 -96q23 -57 22 -125q0 -100 -28 -199q-27 -92 -89 -166q-57 -70 -145 -112q-89 -43 -209 -43q-92 0 -166 30q-70 29 -123 92q-49 59 -77 146q-27 81 -27 198zM260 412q0 -102 16 -162q18 -66 48 -111 q28 -43 67 -61t88 -19q76 0 127 33q55 37 88 92q37 63 51 138q16 82 17 167q0 109 -49 164q-47 53 -152 54q-43 0 -67 -5q-49 -8 -74 -14q-49 -12 -74 -20q-8 -2 -32.5 -10.5t-37.5 -12.5q-10 -59 -12 -115q-4 -77 -4 -118z" />
<glyph unicode="7" d="M121 0l797 1188h-580l-64 -164h-65l55 317h830l-15 -77l-821 -1264h-137z" />
<glyph unicode="8" d="M43 293q0 170 80 272q82 102 227 146q-61 27 -106 88q-41 55 -41 149q0 100 26 174q29 78 82 129q59 55 142 82q90 29 202 29q178 0 262 -69.5t84 -200.5q0 -82 -20 -143.5t-57 -110.5q-39 -51 -82 -80q-49 -33 -99 -47q88 -31 136 -99q49 -71 49 -172q0 -111 -31 -196 q-31 -88 -92 -146q-59 -57 -155.5 -87.5t-223.5 -30.5q-195 0 -289 81.5t-94 231.5zM219 289q0 -47 14 -96q12 -41 39 -72q29 -31 68 -45q45 -16 98 -17q90 0 154 29q59 27 96 80t49 121q12 72 13 157q0 55 -11 89q-10 35 -39 69q-23 29 -65.5 45.5t-99.5 16.5 q-88 0 -147.5 -27t-96.5 -76q-41 -55 -55 -119q-17 -75 -17 -155zM379 944q0 -43 8 -74q10 -39 29 -59q27 -31 53 -43q31 -14 82 -14q78 0 131 28q51 27 84 76t45 109q12 61 12 125q0 39 -10 79q-8 35 -31 60q-25 27 -55 39q-35 12 -84 12q-78 0 -129 -27q-53 -29 -82 -71 q-31 -47 -43 -107q-10 -51 -10 -133z" />
<glyph unicode="9" d="M59 35l39 221h68l10 -141q29 -18 86 -35q55 -16 111 -17q84 0 157 46q63 39 121 122q53 78 86 181q37 113 54 219q-12 -8 -66 -35q-20 -10 -78 -31q-31 -10 -88 -22q-51 -10 -90 -11q-80 0 -145.5 25t-108.5 68t-65.5 106.5t-22.5 138.5q0 109 29 193q31 88 90 153.5 t147 102.5q90 37 205 37q94 0 164 -29q74 -31 125 -88q47 -53 78 -147q27 -82 26 -201q0 -135 -20 -246q-20 -115 -62 -217q-41 -104 -94 -184q-55 -83 -123 -142t-149 -90q-86 -33 -166 -32q-98 0 -172 14q-76 14 -146 41zM311 877q0 -125 55.5 -186.5t153.5 -61.5 q88 0 148 16q78 20 133 45q8 78 10 117t2 119q0 102 -16 161q-18 68 -45 109t-70 61q-45 20 -86 21q-76 0 -129 -31q-55 -33 -88 -86q-37 -61 -51 -127q-17 -77 -17 -157z" />
<glyph unicode=":" horiz-adv-x="681" d="M137 92q0 23 10.5 47.5t24.5 39t39 24.5t47.5 10t47 -10t38.5 -24.5t24.5 -39t10.5 -47t-10.5 -47.5t-24.5 -39q-16 -18 -39 -26q-18 -8 -47 -8.5t-47 8.5q-23 8 -39 26q-14 14 -24.5 38.5t-10.5 47.5zM279 840q0 29 8 47q8 23 26 39q15 15 37 24q25 10 49 11 q23 0 47.5 -10.5t39 -25t24.5 -39t10 -47t-10 -47t-25 -38.5q-18 -16 -39 -27q-18 -8 -47 -8q-31 0 -49 8t-37 27q-18 16 -26 39q-8 18 -8 47z" />
<glyph unicode=";" horiz-adv-x="681" d="M94 -238q96 29 139 70q47 43 48 98q0 25 -19 41q-8 8 -43 29q-25 15 -43 37q-20 25 -20 63q0 53 34.5 82t85.5 29q27 0 54 -10q25 -9 43 -31q16 -18 26.5 -53t10.5 -74q0 -59 -18.5 -114.5t-55.5 -98.5q-41 -49 -98.5 -84t-143.5 -61v77zM303 840q0 23 10 47q10 23 27 39 q15 15 37 24q25 10 49 11q23 0 47.5 -10.5t38.5 -25t24.5 -39t10.5 -47t-10.5 -47t-24.5 -38.5q-16 -16 -39 -27q-18 -8 -47 -8q-31 0 -49.5 8t-36.5 27q-16 16 -27 39q-10 24 -10 47z" />
<glyph unicode="&#x37e;" horiz-adv-x="681" d="M94 -238q96 29 139 70q47 43 48 98q0 25 -19 41q-8 8 -43 29q-25 15 -43 37q-20 25 -20 63q0 53 34.5 82t85.5 29q27 0 54 -10q25 -9 43 -31q16 -18 26.5 -53t10.5 -74q0 -59 -18.5 -114.5t-55.5 -98.5q-41 -49 -98.5 -84t-143.5 -61v77zM303 840q0 23 10 47q10 23 27 39 q15 15 37 24q25 10 49 11q23 0 47.5 -10.5t38.5 -25t24.5 -39t10.5 -47t-10.5 -47t-24.5 -38.5q-16 -16 -39 -27q-18 -8 -47 -8q-31 0 -49.5 8t-36.5 27q-16 16 -27 39q-10 24 -10 47z" />
<glyph unicode="&#x3c;" horiz-adv-x="1380" d="M231 655v50l955 469v-103l-809 -391l809 -391v-103z" />
<glyph unicode="=" horiz-adv-x="1380" d="M233 424v102h953v-102h-953zM233 834v102h953v-102h-953z" />
<glyph unicode="&#x3e;" horiz-adv-x="1380" d="M231 186v103l809 391l-809 391v103l955 -469v-50z" />
<glyph unicode="?" d="M291 1036l31 254q80 31 151 47q84 18 168 19q187 0 277 -74t90 -219q0 -82 -23 -156q-23 -72 -67 -127q-47 -55 -121 -96q-76 -41 -176 -61l-60 -13l-59 -260h-80l33 334l147 29q117 23 172 102.5t55 235.5q0 55 -12 94q-14 47 -35 69q-25 28 -61 43q-35 14 -90 15 q-31 0 -62 -6q-35 -6 -59 -15q-20 -6 -57 -22q-23 -10 -45 -29l-52 -164h-65zM303 92q0 23 10 47q10 20 27 39q15 15 37 25q25 10 49 10q20 0 45 -10t39 -24.5t24.5 -39t10.5 -47t-10.5 -47.5t-24.5 -39q-18 -18 -39 -26q-18 -8 -45 -9q-31 0 -49.5 8.5t-36.5 26.5 q-16 18 -27 39q-10 24 -10 47z" />
<glyph unicode="@" horiz-adv-x="1882" d="M121 362q0 156 31 273q35 137 94 242q63 113 147 200q88 90 193 154q108 65 233 98q129 35 264 35q175 0 308 -43q129 -41 221 -125q92 -82 133 -192q45 -119 45 -252q0 -98 -29 -197q-27 -90 -78 -174q-57 -92 -114 -148q-72 -68 -146 -112q-80 -47 -163 -72 q-86 -25 -175 -24q-14 0 -22 2q-12 4 -21 8q-10 6 -16 16q-4 6 -4 25q0 41 2 63q0 10 1 30.5t3 31.5q-27 -27 -63 -58q-49 -41 -78 -57q-45 -27 -88 -43q-46 -18 -92 -18q-71 0 -111 55q-41 57 -41 145q0 76 16 164q14 82 43 156q23 61 74 137q41 61 100 109q61 45 93 63 q43 25 90 37q46 12 98 18t117 6h35h28q6 0 15.5 -1t13.5 -1q8 0 29 -4l-113 -530q-8 -33 -10 -49q-2 -8 -5 -24.5t-3 -22.5q-4 -29 -5 -43q0 -8 -1 -19.5t-1 -15.5q0 -14 2.5 -22.5t10.5 -20.5q4 -8 22 -15q10 -4 39 -4q65 0 123 25t104 68q39 37 82 104q37 59 62 125 q25 68 37 141.5t12 143.5q0 129 -41 229q-40 98 -117 166q-78 70 -184 102q-111 35 -244 35q-131 0 -237 -33q-113 -35 -203 -94q-94 -61 -162 -145q-72 -88 -119 -185q-49 -100 -73 -219q-27 -127 -27 -241q0 -129 41 -252q43 -127 119 -215q80 -92 202.5 -147.5 t286.5 -55.5q100 0 172 14q90 18 140 37q65 25 116 55q49 29 103 66l32 -51q-51 -39 -114 -78q-70 -41 -133 -66q-86 -33 -158 -45q-92 -16 -189 -16q-178 0 -321 59q-139 57 -236 160q-100 106 -147 240q-49 138 -49 292zM690 309q0 -72 20.5 -110.5t59.5 -38.5q43 0 74 10 q25 8 74 29q33 12 65 37l51 38l117 533q-4 0 -10 1t-10.5 1t-8.5 1t-8 1h-12q-41 0 -64 -2q-35 -4 -71 -12q-35 -8 -70 -25q-41 -18 -63 -39q-31 -29 -56 -69q-29 -49 -45 -101q-18 -53 -31 -121q-12 -65 -12 -133z" />
<glyph unicode="A" horiz-adv-x="1249" d="M-113 0l11 53l112 27l682 1272h191l250 -1272l124 -27l-10 -53h-475l10 53l144 27l-64 387h-528l-205 -387l135 -27l-10 -53h-367zM379 557h467l-123 651z" />
<glyph unicode="B" horiz-adv-x="1249" d="M18 0l11 53l133 27l209 1182l-168 26l10 53h551q125 0 207 -20.5t137 -59t76 -87.5q23 -55 22 -115q0 -77 -24 -135q-25 -57 -70 -103q-43 -43 -106 -71q-61 -28 -136 -37q76 -6 129 -27q61 -23 103 -57q47 -39 69 -92q25 -55 25 -127q0 -213 -145 -316 q-143 -100 -437 -100q-18 0 -53 1t-51 1q-25 0 -49.5 1t-47 1t-45 1t-44.5 1h-93h-213zM356 90q70 -4 101 -4q27 -2 84 -2h73q109 0 182.5 22.5t114.5 63.5q39 39 60 102q16 51 16 134q0 135 -88 196.5t-256 61.5h-186zM473 754h166q113 0 172 16q72 18 111 53q41 35 59 92 q16 49 16 132q0 104 -63 153q-68 51 -215 51h-158z" />
<glyph unicode="C" horiz-adv-x="1363" d="M115 522q0 197 61 350q61 156 172 263q106 104 264 163q152 57 334 58q143 0 244 -15q102 -14 194 -36l-45 -293h-63v174q-61 43 -152 67q-82 23 -184 23q-137 0 -250 -55q-121 -59 -198 -154q-86 -106 -132 -246q-47 -147 -47 -317q0 -92 23 -176q20 -80 72 -140 q49 -59 124 -92q74 -33 185 -33q55 0 121 11q63 10 110 26q55 20 94 39q47 23 74 45l72 201h65l-61 -315q-39 -16 -105 -33q-78 -20 -120 -29q-84 -16 -133 -20q-68 -6 -136 -6q-147 0 -252 38q-113 41 -182 109q-78 74 -112 172q-37 100 -37 221z" />
<glyph unicode="D" horiz-adv-x="1478" d="M-23 0l9 53l176 27l209 1182l-168 26l10 53h571q162 0 285 -36q129 -39 209 -107q84 -72 127 -172q43 -101 43 -233q0 -174 -57 -328q-53 -141 -162 -250q-102 -102 -256 -162q-147 -57 -344 -57h-125q-23 0 -68 1t-65 1q-23 0 -65 1t-60 1h-99h-170zM356 94l127 -6 q43 -2 138 -2q152 0 268.5 49t193.5 139q74 84 115 220q39 125 39 290q0 131 -35 215q-37 90 -102 144q-72 57 -164 82q-102 27 -213 26h-162z" />
<glyph unicode="E" horiz-adv-x="1249" d="M-25 0l11 53l176 27l209 1182l-168 26l10 53h1006l-58 -321h-65l6 217q-29 2 -78 6q-2 0 -37 3t-53 3q-16 0 -46 1t-44 1h-64h-219l-92 -524h360l62 160h63l-73 -412h-64l-2 162h-362l-97 -547h265q20 0 59 1t57 1q70 0 99 2q57 4 77 6q33 4 48 6l102 248h65l-81 -354 h-1072z" />
<glyph unicode="F" horiz-adv-x="1249" d="M-10 0l10 53l162 27l209 1182l-168 26l10 53h1055l-58 -321h-65l6 217q-33 4 -76 6q-10 0 -28.5 2t-34 3t-29.5 1q-16 0 -45 1t-43 1h-66h-268l-98 -559h444l60 160h59l-72 -412h-59l-4 162h-445l-92 -522l219 -27l-10 -53h-573z" />
<glyph unicode="G" horiz-adv-x="1478" d="M113 522q0 205 63 357q66 154 176 262q104 102 266 159q154 55 328 56q123 0 238 -17q113 -16 211 -43l-52 -288h-67l4 166q-59 47 -147 75q-82 27 -193 27q-119 0 -238 -51q-115 -49 -200 -148q-84 -96 -137 -243q-51 -141 -52 -330q0 -109 29 -195q27 -82 80 -137 q51 -53 123 -82q74 -29 157 -29q61 0 105 9q33 6 90 22q33 10 80 31q31 14 57 31l64 352l-166 26l8 54h496l-11 -54l-135 -26l-76 -420q-61 -25 -122 -43q-82 -25 -125 -33q-84 -16 -133 -20q-90 -8 -144 -8q-133 0 -246 38q-109 37 -180 107q-74 70 -112 170 q-39 98 -39 225z" />
<glyph unicode="H" horiz-adv-x="1478" d="M-23 0l9 53l176 27l207 1182l-166 26l8 53h537l-9 -53l-178 -26l-92 -527h631l92 527l-166 26l8 53h537l-8 -53l-179 -26l-206 -1182l165 -27l-8 -53h-536l8 53l178 27l98 565h-630l-99 -565l166 -27l-8 -53h-535z" />
<glyph unicode="I" horiz-adv-x="681" d="M-8 0l8 53l176 27l207 1182l-166 26l8 53h537l-8 -53l-179 -26l-206 -1182l166 -27l-9 -53h-534z" />
<glyph unicode="J" horiz-adv-x="907" d="M31 27l43 231h63l6 -139q4 -10 23 -21q20 -12 33 -16q35 -12 41 -12q29 -4 41 -4q141 0 174 190l176 1006l-166 26l8 53h516l-8 -53l-158 -26l-145 -830q-20 -125 -62 -211q-39 -84 -94 -139q-53 -53 -116 -78q-66 -25 -140 -24q-55 0 -131 14q-57 10 -104 33z" />
<glyph unicode="K" horiz-adv-x="1363" d="M-25 0l11 53l176 27l209 1182l-168 26l10 53h537l-11 -53l-176 -26l-98 -557l678 557l-119 26l10 53h420l-10 -53l-156 -26l-557 -455l449 -727l133 -27l-10 -53h-308l-409 686l-144 -117l-88 -489l189 -27l-11 -53h-557z" />
<glyph unicode="L" horiz-adv-x="1138" d="M-25 0l11 53l176 27l209 1182l-168 26l10 53h571l-10 -53l-211 -26l-209 -1176h215q123 0 195 6q55 4 102 14l111 279h65l-86 -385h-981z" />
<glyph unicode="M" horiz-adv-x="1705" d="M-25 0l11 53l176 27l209 1182l-168 26l10 53h381l207 -1024l598 1024h401l-10 -53l-176 -26l-209 -1182l168 -27l-10 -53h-543l8 53l184 27l191 1073l-682 -1153h-35l-231 1153l-189 -1073l176 -27l-10 -53h-457z" />
<glyph unicode="N" horiz-adv-x="1363" d="M-14 0l10 53l174 27l209 1182l-168 26l10 53h387l400 -1005l161 926l-176 26l11 53h456l-10 -53l-174 -26l-223 -1262h-99l-481 1206l-199 -1126l177 -27l-11 -53h-454z" />
<glyph unicode="O" horiz-adv-x="1478" d="M102 514q0 96 25 219q20 106 68 199q49 100 110 172q68 80 150 133q92 59 190 88q104 31 225 31q125 0 228 -39q104 -41 176 -109q70 -66 115 -170q43 -98 43 -217q0 -84 -21 -196q-18 -98 -59 -195q-37 -86 -103 -174q-59 -80 -147 -143q-80 -57 -195 -97 q-109 -37 -243 -36q-125 0 -228 38q-100 39 -176 111q-72 68 -115 168q-43 98 -43 217zM303 504q0 -104 27 -182q29 -84 73 -138q47 -57 117 -88q68 -31 150 -30q98 0 170 34q82 39 139 95q66 61 111 137q47 80 77 164q33 92 47 172q16 92 17 163q0 104 -27 185 q-27 82 -76 139q-49 59 -118 90q-68 31 -152 31q-92 0 -170 -37q-82 -39 -137 -94q-68 -68 -109 -139q-51 -88 -77 -164q-29 -78 -46 -174q-16 -92 -16 -164z" />
<glyph unicode="P" horiz-adv-x="1249" d="M-10 0l10 53l162 27l209 1182l-168 26l10 53h537q111 0 202 -26q84 -25 142 -72q53 -45 80 -113q25 -66 24 -145q0 -98 -31 -184q-29 -80 -100 -146q-66 -59 -176.5 -94t-255.5 -35h-203l-78 -446l219 -27l-10 -53h-573zM449 616h163q197 0 291 89q96 90 96 268 q0 145 -71 211q-74 68 -219 67h-148z" />
<glyph unicode="Q" horiz-adv-x="1478" d="M113 514q0 106 22 219q20 98 69.5 198.5t110.5 172.5q68 80 150 133q92 59 190 88q104 31 226 31q125 0 227 -39q104 -41 176 -109q70 -66 115 -170q43 -98 43 -217q0 -90 -15 -170q-16 -94 -45 -170q-29 -78 -77 -159q-47 -76 -109 -140q-61 -61 -143 -108t-181 -72 l21 -31l68 -92q29 -37 61 -63q31 -25 65.5 -37t75.5 -12h21q6 0 12 1t12 1h23q4 0 9 1t7 1l-12 -66q-2 0 -35 -10q-14 -4 -51 -12q-35 -8 -59 -11q-41 -4 -58 -4q-59 0 -100 15q-45 16 -80 45q-39 33 -76 82q-37 51 -82 122l-28 48q-119 0 -224 40q-100 39 -174 111 q-76 74 -114 168q-41 100 -41 215zM313 504q0 -104 27 -182q29 -84 74 -138q47 -57 116 -88q68 -31 150 -30q98 0 170 34q82 39 139 95q66 61 111 137q47 80 78 164q33 92 47 172q16 92 16 163q0 104 -27 185q-27 82 -75 139q-49 59 -119 90q-68 31 -152 31q-94 0 -170 -37 q-82 -39 -137 -94q-68 -68 -108 -139q-51 -88 -78 -164q-33 -90 -47 -174q-15 -80 -15 -164z" />
<glyph unicode="R" horiz-adv-x="1249" d="M-10 0l10 53l162 27l209 1182l-168 26l10 53h530q113 0 203 -22q82 -20 139 -66q55 -43 82 -102t27 -135q0 -83 -25 -148q-27 -72 -67 -114q-47 -51 -111 -84q-57 -31 -147 -54l225 -536l148 -27l-11 -53h-307l-246 588h-209l-90 -508l178 -27l-10 -53h-532zM461 678h155 q86 0 160 22q72 23 119 64q51 45 74 102q27 68 26 144q0 121 -71 182q-68 59 -215 59h-148z" />
<glyph unicode="S" d="M25 74l51 297h65v-191q12 -20 45 -44.5t66 -39.5q47 -20 80 -26q39 -8 92 -9q86 0 147 21q66 23 107 59q47 43 65 92q20 53 21 121q0 55 -25 95q-27 43 -63 71q-43 33 -90 60q-20 10 -48 25.5t-57 29.5q-49 25 -102 59q-55 35 -90 72q-43 47 -66 96q-23 51 -22 127 q0 96 32 162q35 70 93 113q66 49 147 69q90 23 195 23q88 0 176 -10q86 -10 147 -27l-49 -281h-65l-5 172q-31 25 -90 43q-57 18 -130.5 18.5t-125 -18t-86 -53.5t-49.5 -78q-16 -49 -16 -98t24 -86q27 -39 64 -68q35 -27 92 -57l102 -55q35 -18 105 -60q39 -23 90 -73 q37 -37 63 -95q25 -51 25 -124q0 -100 -33 -179q-33 -80 -96 -133q-59 -51 -164 -84q-98 -31 -229 -30q-117 0 -228 26q-100 25 -165 68z" />
<glyph unicode="T" horiz-adv-x="1138" d="M133 1026l57 315h1070l-56 -315h-67l10 209q-33 6 -107 12q-70 6 -188 6h-49l-207 -1173l209 -27l-10 -53h-619l10 53l217 27l207 1175h-51q-23 0 -60.5 -1t-52.5 -1q-35 0 -79 -4q-37 -4 -60 -6l-24.5 -5t-18.5 -3l-63 -209h-68z" />
<glyph unicode="U" horiz-adv-x="1478" d="M188 1288l9 53h536l-8 -53l-178 -26l-141 -805q-2 -10 -4.5 -29.5t-2.5 -21.5q-4 -33 -4 -52q0 -59 19 -108q18 -51 53 -82q41 -37 92 -53q59 -18 137 -19q113 0 193 31q84 33 137 80q55 49 86 114q35 72 45 136l141 809l-174 26l9 53h456l-8 -53l-176 -26l-141 -801 q-14 -86 -58 -178q-40 -86 -110 -154q-72 -68 -174 -109q-104 -41 -242 -40q-236 0 -356.5 94t-120.5 274q0 35 2 55l5 29t3 21l141 809z" />
<glyph unicode="V" horiz-adv-x="1249" d="M106 1288l11 53h493l-10 -53l-170 -26l219 -979l537 979l-152 26l10 53h404l-10 -53l-131 -26l-727 -1293h-52l-295 1293z" />
<glyph unicode="W" horiz-adv-x="1705" d="M135 1288l8 53h467l-8 -53l-162 -26l142 -936l426 921h45l151 -923l418 938l-164 26l8 53h396l-11 -53l-120 -26l-596 -1293h-64l-145 897l-418 -897h-66l-194 1293z" />
<glyph unicode="X" horiz-adv-x="1249" d="M-68 0l11 53l149 27l481 606l-204 576l-148 26l10 53h494l-10 -53l-144 -26l140 -408l319 408l-133 26l10 53h410l-10 -53l-152 -26l-403 -508l237 -674l150 -27l-11 -53h-514l11 53l163 27l-174 508l-397 -508l162 -27l-10 -53h-437z" />
<glyph unicode="Y" horiz-adv-x="1138" d="M117 1288l10 53h547l-10 -53l-195 -26l188 -627l394 627l-177 26l11 53h436l-10 -53l-152 -26l-471 -734l-80 -448l209 -27l-8 -53h-621l11 53l217 27l78 442l-230 740z" />
<glyph unicode="Z" horiz-adv-x="1138" d="M25 0l18 94l864 1161h-200q-131 0 -218 -6q-94 -6 -124 -14l-68 -211h-70l56 317h872l-14 -86l-875 -1171h242q43 0 129 4q82 4 121 8q12 2 47 5t51 5l62 11l104 256h70l-95 -373h-972z" />
<glyph unicode="[" horiz-adv-x="796" d="M119 -274l299 1695h454l-8 -47l-305 -41l-266 -1519l289 -41l-9 -47h-454z" />
<glyph unicode="\" horiz-adv-x="567" d="M158 1350h98l213 -1370h-100z" />
<glyph unicode="]" horiz-adv-x="796" d="M-49 -274l8 47l303 41l268 1519l-288 41l8 47h455l-299 -1695h-455z" />
<glyph unicode="^" horiz-adv-x="862" d="M72 389l428 952h49l428 -952h-103l-350 809l-350 -809h-102z" />
<glyph unicode="_" d="M-16 -162h1056v-102h-1056v102z" />
<glyph unicode="`" horiz-adv-x="681" d="M303 1386l6 37h203l158 -272l-4 -33h-56z" />
<glyph unicode="a" d="M61 313q0 84 19 168q16 78 55 154q37 76 84 133t113 104q61 43 135 68t154 25q66 0 120 -13q70 -16 107 -30l6 6q2 2 4 2t4 2q4 2 8 6q4 2 11.5 9t11.5 9h53l-158 -886l113 -25l-6 -45h-287l31 156q-82 -88 -162 -133q-77 -43 -147 -43q-59 0 -107 20q-51 23 -86 63 q-31 37 -55 105q-21 59 -21 145zM240 340q0 -68 14 -109q16 -49 37 -73q23 -31 51 -41q31 -12 61 -13q37 0 66 10.5t66 32.5q31 18 61 43q27 23 55 54l109 594q-18 12 -35 20q-25 12 -37 16q-14 4 -39 9q-14 2 -47 2q-84 0 -151 -49q-66 -47 -113 -129q-53 -92 -74 -175 q-24 -98 -24 -192z" />
<glyph unicode="b" d="M76 63l229 1289l-133 24l8 45h299l-73 -440l-7 -47q-2 -12 -10 -51l-12 -52q-2 -6 -5 -22t-5 -23l77 72q20 18 82 55q45 27 82 39q39 12 78 13q61 0 109 -21q53 -23 88 -63.5t57.5 -104t22.5 -145.5q0 -76 -21 -168q-16 -72 -53 -154q-27 -59 -86 -133q-51 -63 -113 -104 q-66 -43 -137 -68q-74 -25 -158 -24q-23 0 -76 4q-12 0 -83 16q-41 8 -82 25q-33 11 -78 38zM248 106q23 -20 69 -34q39 -12 93 -13q82 0 151 47q68 46 117 123q51 80 78 177q27 94 26 198q0 115 -45 174q-45 61 -125 62q-27 0 -63 -11q-31 -8 -68 -28q-14 -8 -65 -45 q-23 -16 -62 -56z" />
<glyph unicode="c" horiz-adv-x="907" d="M63 330q0 98 23 188q20 84 61 156q41 74 91 125q53 57 112 92q61 37 125 55q65 18 129 19q25 0 78 -4q12 0 80 -13q25 -4 69 -16q34 -9 56 -19l-45 -262h-56l-16 174q-25 25 -70 45q-40 18 -98 19q-70 0 -135 -41q-72 -43 -117 -113q-49 -74 -80 -174q-31 -101 -30 -221 q0 -72 14 -117q15 -49 43 -80q27 -31 63 -45q35 -14 86 -14q82 0 158 29q72 27 139 71l31 -43q-39 -35 -63 -51q-37 -27 -88 -51q-43 -23 -105 -41q-59 -18 -119 -18q-78 0 -147 26q-57 23 -105 72q-41 45 -63 110q-21 62 -21 142z" />
<glyph unicode="d" d="M61 317q0 76 21 168q18 80 53 154q35 72 84 131q49 57 112.5 102.5t133.5 67.5q74 25 153 25q49 0 91 -7q40 -6 73 -18q0 6 4 35q0 6 3.5 22.5t5.5 24.5q2 12 3 23.5t3 23.5q2 8 5 22.5t3 16.5l43 244l-156 24l9 45h323l-240 -1351l113 -25l-6 -45h-287l31 156 q-82 -88 -162 -133q-77 -43 -147 -43q-59 0 -111 22q-49 23 -84 66q-37 45 -53 106q-21 71 -21 143zM240 340q0 -68 14 -109q16 -49 37 -73q23 -31 51 -41q31 -12 61 -13q55 0 121 37t127 103l109 594q-37 23 -72 34q-43 14 -90 14.5t-100 -24.5q-49 -23 -88 -61 q-43 -43 -72 -92q-33 -55 -53 -115q-20 -55 -33 -125q-12 -64 -12 -129z" />
<glyph unicode="e" horiz-adv-x="907" d="M63 330q0 90 21 170q25 94 55 153q35 66 86 127q47 57 109 99q63 43 123 63q68 23 135 23t113 -15q53 -16 86 -43q35 -29 53 -65.5t18 -81.5q0 -63 -41 -122.5t-119 -105.5q-84 -49 -194 -77q-123 -33 -264 -41q0 -2 -1 -12.5t-1 -16.5t-1 -21.5t-1 -23.5q0 -43 10 -94 q10 -47 32.5 -82t65.5 -58q41 -23 105 -22q89 0 165 31q82 33 142 69l28 -43q-31 -28 -73 -55q-43 -29 -94 -53q-33 -16 -107 -37q-59 -16 -115 -16q-84 0 -147 24q-61 23 -105 70q-41 45 -63 110q-21 62 -21 146zM252 475q117 10 190 35q86 29 138 65q53 39 82 87 q27 45 26 98q0 55 -30.5 92t-88.5 37q-55 0 -110 -39q-49 -35 -94 -96q-41 -55 -70 -133q-33 -89 -43 -146z" />
<glyph unicode="f" horiz-adv-x="567" d="M23 -436l225 1292h-162l8 49l170 39l12 66q41 225 134 327q94 104 256 105q46 0 79 -6q51 -10 60 -13l-35 -196h-49l-19 114q-27 20 -84 21q-33 0 -59.5 -16.5t-42.5 -47.5q-23 -41 -33 -81q-18 -74 -26 -121l-29 -156h209l-14 -84h-209l-226 -1292h-165z" />
<glyph unicode="g" d="M0 -365l18 228h45l37 -125q43 -39 93 -57q61 -23 141 -23q70 0 125 23q51 20 84 57q37 41 53 84q16 45 27 102l39 236l-14.5 -14.5l-20 -20.5t-19.5 -19q-35 -33 -78 -59q-33 -20 -92 -47q-47 -20 -96 -20q-65 0 -117 24.5t-86 67.5q-35 43 -53 106q-16 55 -16 135 q0 100 18 172q20 80 57 154t91 133q61 68 112 102q59 39 137 66q74 25 152 25q18 0 75.5 -4.5t88.5 -8.5q16 -2 46 -7l42 -7q49 -6 76 -14l-168 -959q-18 -108 -56 -184q-35 -72 -94 -125q-53 -47 -133 -69.5t-180 -22.5q-35 0 -105 8q-39 4 -94 16q-39 8 -78 22.5t-57 24.5 zM248 340q0 -47 10 -94q8 -39 33 -74q23 -33 51 -49q31 -18 76 -19q33 0 69 13q39 12 70 33q35 23 64 45q31 25 55 49l110 616q-12 4 -22 7t-21 5q-10 4 -38 9q-25 4 -39 4q-6 0 -21.5 1t-26.5 1q-80 0 -149.5 -47t-116.5 -121t-75.5 -176.5t-28.5 -202.5z" />
<glyph unicode="h" d="M74 0l237 1352l-118 24l8 45h288l-88 -493q0 -6 -4 -19.5t-6 -29.5l-8 -54l-6 -24.5t-4 -22.5q-4 -23 -6 -28q29 39 73 84q40 40 86 67q55 33 92 47q43 16 101 17q45 0 82 -13q39 -12 65 -37q25 -20 41 -65q14 -37 15 -96q0 -4 -4 -33q0 -4 -2.5 -12.5t-3.5 -15.5t-1 -15 l-8 -51q-4 -33 -6 -47l-88 -510l129 -25l-6 -45h-301l100 582l8 47l9 47q4 29 6 41t2 31q0 46 -25 73q-25 29 -76 29q-39 0 -86 -21q-45 -18 -84 -49q-49 -37 -75 -69q-43 -49 -60 -78l-110 -633h-166z" />
<glyph unicode="i" horiz-adv-x="567" d="M115 0l151 870l-129 25l8 45h299l-151 -870l156 -25l-9 -45h-325zM291 1247q0 23 8 41q8 23 23 35q14 14 34 25q16 8 41 8t43.5 -8.5t34.5 -24.5q12 -12 23 -35q10 -25 10 -41q0 -20 -10 -41q-12 -25 -23 -35q-16 -16 -34.5 -24t-43 -8t-41.5 8q-20 10 -34 24 q-10 10 -23 35q-8 16 -8 41z" />
<glyph unicode="j" horiz-adv-x="567" d="M-219 -406l33 187h47l14 -111q8 -8 29 -18q16 -8 43 -8q29 0 53 12q20 10 43 43q18 25 37 80q12 35 31 131l170 960l-138 25l9 45h307l-174 -979q-18 -104 -49 -182q-27 -68 -76 -123q-41 -47 -98.5 -69.5t-120.5 -22.5q-41 0 -88 10q-49 10 -72 20zM301 1247q0 16 10 41 q8 23 23 35q14 14 35 25q16 8 40.5 8t43 -8.5t34.5 -24.5q12 -12 23 -35q8 -18 8 -41q0 -25 -8 -41q-12 -25 -23 -35q-16 -16 -34.5 -24t-43 -8t-40.5 8q-20 10 -35 24q-10 10 -23 35q-10 21 -10 41z" />
<glyph unicode="k" horiz-adv-x="907" d="M59 0l240 1352l-135 24l8 45h305l-172 -968l428 415l-94 27l8 45h291l-6 -45l-82 -23l-295 -280l244 -524l98 -23l-8 -45h-236l-219 479l-147 -139l-62 -340h-166z" />
<glyph unicode="l" horiz-adv-x="567" d="M109 0l237 1352l-129 24l8 45h299l-237 -1351l157 -25l-8 -45h-327z" />
<glyph unicode="m" horiz-adv-x="1478" d="M74 0l153 870l-118 25l8 45h278l-28 -195q45 61 71 89q39 39 82 69.5t84 44.5q45 16 84 17q88 0 137 -56q47 -53 47 -164q45 61 72 89q35 35 80 69q37 29 84 45q45 16 84 17q84 0 133 -54q47 -49 47 -153q0 -23 -2 -37q-2 -8 -3 -22.5t-1 -22.5l-8 -49q-2 -8 -5 -24.5 t-3 -22.5l-88 -510l131 -25l-9 -45h-301l103 582q0 6 3 21t5 23.5t3 17.5t2 15.5t3 16.5q0 6 1 20.5t3 20.5q2 12 2 31q0 47 -20.5 73.5t-65.5 26.5q-25 0 -51 -12q-35 -16 -57 -33q-37 -29 -56 -47q-37 -37 -51 -58q-29 -41 -39 -61q-12 -25 -20 -62l-100 -575h-166 l102 582q0 6 3 21t5 23.5t3 17.5t2 15.5t3 16.5q4 29 6.5 41t2.5 31q0 45 -23 73q-20 27 -68 27q-25 0 -51 -12q-29 -12 -57 -33q-41 -29 -59 -47q-27 -27 -52 -58q-23 -27 -39 -61q-12 -25 -20 -62l-100 -575h-166z" />
<glyph unicode="n" d="M74 0l151 870l-116 27l8 43h276l-26 -190q35 45 79 88q43 40 86 67q49 31 91 45q43 14 96 15q45 0 82 -13q39 -12 65 -37q25 -20 41 -65q14 -37 15 -96q0 -4 -4 -33q0 -4 -2.5 -12.5t-3.5 -15.5t-1 -15l-8 -51q-4 -33 -6 -47l-88 -510l129 -25l-6 -45h-301l100 582l8 47 l9 47q4 29 6 41t2 31q0 46 -25 73q-25 29 -76 29q-39 0 -86 -21q-43 -18 -86 -51q-49 -37 -75 -69q-43 -49 -60 -78l-108 -631h-166z" />
<glyph unicode="o" d="M61 375q0 117 37 223.5t107 187.5q68 80 170 132q94 47 223 47q82 0 147 -27q72 -29 117 -78q45 -47 74 -125q27 -72 27 -164q0 -117 -37 -225q-37 -106 -107 -188q-66 -76 -170 -129q-98 -49 -223 -49q-82 0 -147 26q-68 28 -117 80q-45 49 -74 123q-27 72 -27 166z M238 340q0 -137 51 -207q53 -72 147 -72q68 0 133 43q63 43 111 113q45 68 78 172q31 98 30 217q0 137 -53 209t-149 72q-66 0 -131 -41q-63 -39 -113 -113q-47 -72 -76 -174q-28 -104 -28 -219z" />
<glyph unicode="p" d="M-121 -436l8 47l121 24l219 1235l-102 25l8 45h264l-18 -152q86 86 164 131.5t151 45.5q59 0 106.5 -20.5t84.5 -63.5q35 -41 57 -105q20 -59 20.5 -145t-18.5 -168q-16 -72 -53 -154q-27 -59 -86 -133q-47 -57 -113 -104q-61 -43 -135 -67.5t-154 -24.5q-6 0 -20 1 t-23 1q-14 0 -47 4q-8 2 -23.5 5t-21.5 3q-23 4 -35 8q0 -6 -4 -27l-4 -32q0 -4 -2 -14.5t-2 -16.5q-4 -20 -4 -23l-43 -254l160 -24l-8 -47h-447zM256 106q12 -10 41 -22t43 -16q8 -2 25.5 -4.5t19.5 -2.5q14 -2 41 -2q59 0 104 23q49 25 91 65q39 39 69 95q31 53 51 114 q23 61 31 125q10 72 10 123q0 66 -12 109q-12 41 -37 73q-23 29 -53.5 41.5t-61.5 12.5q-23 0 -57 -11q-37 -10 -65 -26q-14 -8 -66 -45q-23 -16 -63 -58z" />
<glyph unicode="q" d="M68 317q0 137 38 252q41 117 113 205q72 86 180 139q104 51 240 52q20 0 78 -4q61 -4 90 -9q16 -2 47 -7l43 -7q57 -8 80 -14l-234 -1289l121 -24l-8 -47h-291l70 381q10 57 14 78q6 27 23 83q-22 -15 -56 -36q-23 -14 -75 -41q-33 -16 -92 -35q-45 -14 -99 -14 q-135 0 -208.5 85.5t-73.5 251.5zM244 342q0 -53 8 -92q10 -45 31 -76q22 -31 55 -49q35 -18 82 -19q33 0 69 7q43 8 70 14q23 6 64 23q27 10 55 28l121 682q-66 16 -99 21q-66 8 -106 8q-80 0 -145 -47q-68 -47 -111 -121q-45 -74 -70 -174q-24 -99 -24 -205z" />
<glyph unicode="r" horiz-adv-x="796" d="M84 0l152 870l-117 25l8 45h276l-30 -213q35 55 84 107q41 45 90 73.5t90 42.5q43 14 88 15q27 0 43 -2q20 -2 35 -7l-43 -245h-43l-39 127q-45 0 -88 -19q-51 -23 -84 -47q-47 -37 -80 -72q-49 -53 -70 -84l-106 -616h-166z" />
<glyph unicode="s" horiz-adv-x="796" d="M25 43l41 225h45l16 -137q23 -25 74 -49q49 -23 108 -23q49 0 84 9q41 10 72 30q29 20 47 54q16 31 16 86q0 53 -30 88q-33 37 -72 61q-47 29 -96 53q-57 27 -97 58q-45 37 -73 77q-29 43 -29 113q0 76 27 127q27 49 75 86q47 35 107 49q57 14 127 15q63 0 139 -11 q68 -9 129 -24l-37 -209h-47l-14 108q-29 27 -72 41q-41 14 -94 15q-82 0 -131 -37t-49 -117q0 -51 28 -82q33 -35 76 -61l97 -53q45 -25 96 -62q41 -29 74 -80q31 -45 30 -117q0 -150 -96 -223t-291 -73q-94 0 -161.5 20t-118.5 43z" />
<glyph unicode="t" horiz-adv-x="567" d="M90 856l8 45l133 39l138 213h63l-37 -213h215l-16 -84h-215l-96 -549q-2 -12 -15 -76q-4 -23 -4 -57q0 -45 22.5 -67.5t57.5 -22.5q47 0 80 8q43 10 72 23l20 -47q-55 -39 -110 -62q-66 -27 -138 -26q-39 0 -73 14q-33 12 -54 37q-25 29 -32 57q-10 37 -11 74q0 41 4 65 q8 49 13 72l98 557h-123z" />
<glyph unicode="u" d="M102 186q0 18 2 33q0 4 2.5 12.5t3.5 15.5t1 15t4 25.5t4 25.5l8 47l88 510l-111 25l9 45h280l-102 -582l-8 -45q-2 -12 -3 -23t-4 -24q0 -4 -2 -13t-3 -16.5t-1 -13.5q-2 -12 -2 -30q0 -45 25 -72q25 -29 76 -29q43 0 86 19q45 18 84 49q49 37 75 69q43 49 60 78 l110 633h166l-153 -870l118 -25l-8 -45h-278l26 193q-35 -45 -80 -89q-55 -51 -83 -69q-39 -25 -93 -43q-49 -16 -94 -17q-47 0 -84 13q-31 10 -63 39q-25 20 -41 65q-15 37 -15 94z" />
<glyph unicode="v" horiz-adv-x="907" d="M29 895l8 45h256l145 -731l248 405q39 68 51 107q14 45 15 86q0 37 -22.5 59.5t-45.5 28.5l8 45h191q12 -12 18 -25q8 -16 8 -38q0 -31 -16 -86q-16 -53 -68 -134l-422 -677h-73l-189 890z" />
<glyph unicode="w" horiz-adv-x="1363" d="M49 895l8 45h244l131 -707l309 601h76l121 -605l199 389q33 66 43 105q14 53 14 84q0 37 -22.5 59.5t-45.5 28.5l9 45h190q12 -12 18 -25q8 -16 9 -38q0 -33 -19 -84q-16 -47 -65 -136l-369 -677h-65l-123 618l-320 -618h-69l-170 890z" />
<glyph unicode="x" horiz-adv-x="907" d="M-25 43q0 15 7 31q2 6 24 37q10 16 41 49q6 8 66 61l272 254l-172 395l-107 25l9 45h247l146 -358l123 118q66 61 90 97q27 37 27 59q0 8 -7 14q-8 8 -14 11q-2 0 -10 4t-10 4q-10 4 -19 6l8 45h176q8 -4 17 -18q6 -9 6 -25q0 -57 -139 -190l-213 -201l190 -440l117 -21 l-8 -45h-256l-166 399l-172 -163l-53 -54q-10 -10 -31 -41q-14 -23 -17 -30q0 -4 -3 -13.5t-3 -13.5q0 -15 13 -25q10 -8 30 -14l-8 -45h-184q-8 8 -12.5 16.5t-4.5 26.5z" />
<glyph unicode="y" horiz-adv-x="907" d="M-170 -424l37 203h45l14 -96q27 -23 82 -23q45 0 84 25q41 25 78 65q43 47 68 86q49 78 57 94l45 82l-184 858l-113 25l8 45h256l146 -731l235 405q35 59 49 107q14 45 15 86q0 39 -21 59q-23 23 -45 29l8 45h191q8 -8 16 -24.5t8 -38.5q0 -37 -16 -84q-20 -61 -66 -136 l-397 -667q-53 -92 -111 -180q-52 -80 -104 -135.5t-111 -86.5t-127 -30q-8 0 -23 1t-22 1q-27 0 -36 2l-31 6q-25 6 -35 8z" />
<glyph unicode="z" horiz-adv-x="796" d="M-23 0l9 45l565 815h-150q-37 0 -55 -2q-10 -2 -27.5 -5t-25.5 -3q-16 -2 -45 -10q-23 -6 -33 -15l-55 -135h-47l45 250h612l-8 -49l-561 -811h196q57 0 109 12q53 12 88 35l76 147h47l-72 -274h-668z" />
<glyph unicode="{" horiz-adv-x="817" d="M37 553l8 45q53 0 94 14q37 14 74 43q33 27 55 72q18 39 33 107l51 294q25 139 105 218q78 76 209 75h135l-8 -47h-62q-90 0 -139 -55t-68 -160l-57 -330q-8 -43 -33 -92q-23 -43 -51 -75q-27 -29 -72 -54q-41 -23 -82 -30v-3q76 -20 113 -67q41 -53 41 -129 q0 -6 -1 -15.5t-1 -13.5q0 -8 -4 -28l-60 -334q-4 -29 -6 -41.5t-2 -34.5q0 -72 33 -105q35 -35 107 -34h61l-8 -47h-135q-104 0 -162 57q-55 55 -55 156q0 41 8 81l53 295q4 29 4 37q0 6 1 16.5t1 16.5q0 45 -12 76q-10 27 -35 51q-18 18 -57 29q-35 10 -76 12z" />
<glyph unicode="|" horiz-adv-x="561" d="M266 -442v1863h103v-1863h-103z" />
<glyph unicode="}" horiz-adv-x="817" d="M37 -274l6 47h63q90 0 140 55q47 53 65 160l60 334q8 51 30 94q16 33 54 73q29 31 69 54q47 25 84 32v3q-68 15 -110 67q-41 49 -41 131v27q0 6 4 26l57 330q4 29 6 41t2 37q0 70 -32 102q-35 35 -105 35h-61l8 47h135q109 0 162 -53t53 -156q0 -27 -2 -41q0 -8 -2 -22 t-2 -21l-53 -294q-6 -37 -6 -68q0 -86 47 -127q43 -37 133 -41l-8 -45q-55 -4 -93 -16q-41 -14 -75 -43q-33 -27 -56 -72q-20 -41 -32 -107l-54 -295q-12 -68 -37 -122q-20 -47 -65 -93q-37 -37 -92 -59q-49 -20 -117 -20h-135z" />
<glyph unicode="~" horiz-adv-x="1107" d="M84 502q4 41 20 123q12 59 41 110q27 47 80 80q49 31 127 31q49 0 92 -19q45 -18 82 -45q41 -29 76 -57l72 -57q31 -25 67 -45q33 -18 66 -19q39 0 67.5 16.5t47.5 47.5q23 37 32 75q6 20 19 103h102q-12 -76 -22 -121q-16 -70 -43 -111q-35 -55 -78 -82 q-49 -31 -125 -30q-45 0 -88 18q-45 18 -82 45q-41 29 -76 58l-72 57q-31 25 -67 45q-33 18 -70 18q-43 0 -69 -14q-29 -16 -50 -45q-16 -25 -30 -76q-12 -47 -19 -106h-100z" />
<glyph unicode="&#xa1;" horiz-adv-x="796" d="M135 -410l230 953h94l-105 -953h-219zM328 839.5q0 22.5 10 47t24 39.5q18 16 39 26q18 8 47 8.5t48 -8.5q20 -10 38.5 -26.5t26.5 -38.5q8 -18 8 -47t-8 -47q-8 -23 -26 -39q-14 -14 -39 -24.5t-47.5 -10.5t-47 10t-39 24.5t-24.5 39t-10 47z" />
<glyph unicode="&#xa2;" d="M154 535q0 141 43 253q43 115 112 193q78 88 158 129q88 45 176 57l33 174h82l-31 -172q49 -4 72 -8q10 -2 32.5 -5t34.5 -5q27 -4 62 -16l49 -17l-45 -262h-55l-17 174q-31 31 -61 43q-37 15 -86 19l-142 -801q78 6 140 33q59 25 123 65l30 -43q-2 -2 -53 -43 q-33 -27 -72 -47q-41 -23 -88 -41q-35 -14 -96 -25l-35 -190h-82l33 184q-82 4 -139 31q-58 28 -99 74q-41 47 -61 108q-18 56 -18 138zM330 545q0 -117 43 -178.5t116 -73.5l140 790q-63 -18 -115 -61q-53 -45 -94 -117q-43 -78 -66 -160q-24 -91 -24 -200z" />
<glyph unicode="&#xa3;" d="M27 0l18 117l92 71q59 45 90 78q37 39 66 94q27 51 26 117q0 37 -6 74q-4 25 -16 78h-164l17 82h126q-12 43 -18 88t-6 96q0 109 31 195q31 84 94 145t151 90q92 31 211 31q80 0 150 -13q71 -12 135 -30l-43 -279h-66l-8 189q-25 16 -82 34q-45 14 -100 15 q-74 0 -131 -29t-94 -84q-41 -61 -58 -131q-20 -86 -20 -176v-41q0 -8 1 -22.5t1 -20.5q0 -8 1 -20.5t1 -16.5v-20h279l-17 -82h-262q0 -53 -2 -82q-4 -57 -10 -88q-10 -57 -29 -97q-25 -49 -49 -81q-28 -37 -62 -68q-39 -35 -73 -59h690l-27 -154h-837z" />
<glyph unicode="&#xa4;" d="M104 332l109 106q-39 51 -59 111q-23 63 -23 127q0 66 23 129q18 55 59 108l-109 107l74 74l105 -109q51 39 110 59q63 23 127 23t127.5 -22.5t112.5 -59.5l106 109l72 -72l-109 -109q45 -63 62 -110q20 -59 20 -127t-20 -127q-18 -53 -62 -111l109 -106l-72 -72 l-106 107q-43 -35 -113 -60q-59 -20 -126.5 -20t-127 20.5t-110.5 59.5l-107 -107zM227 675.5q0 -61.5 25 -112.5q27 -57 63 -94q39 -39 93 -63q47 -23 112 -23q68 0 115 23q57 27 94 63.5t64 93.5q23 47 22 113q0 68 -22 115q-27 57 -64 94t-94 63q-47 23 -115 23 q-66 0 -112 -23q-53 -25 -93 -63q-37 -37 -63 -94q-25 -54 -25 -115.5z" />
<glyph unicode="&#xa5;" d="M94 311l17 82h278l23 129l-6 35h-267l15 82h229l-154 623l-94 26l8 53h430l-8 -53l-137 -26l137 -627l363 627l-119 26l8 53h346l-8 -53l-108 -26l-375 -623h231l-14 -82h-266l-19 -29l-22 -135h278l-14 -82h-281l-39 -231l166 -27l-8 -53h-537l11 53l176 27l41 231h-281 z" />
<glyph unicode="&#xa6;" horiz-adv-x="561" d="M266 180h103v-622h-103v622zM266 801v620h103v-620h-103z" />
<glyph unicode="&#xa7;" d="M66 -203l40 232h46l18 -138q12 -12 37 -26q31 -18 51 -25q18 -6 59 -14q31 -6 66 -6q45 0 92 10t78 34.5t49 61.5q20 41 21 92q0 57 -33 97q-39 47 -82 75q-57 39 -105 66q-51 29 -104 72q-49 41 -82 90q-33 51 -33 125q0 72 29 129q25 49 72 90q41 35 100 55 q61 20 111 29q-41 23 -68 41q-29 20 -55 53q-25 31 -39.5 65.5t-14.5 84.5q0 78 29 139q25 51 76 92q43 35 108.5 51.5t131 16.5t141.5 -11q66 -8 131 -24l-37 -209h-45l-12 108q-29 25 -76 41q-43 14 -98 15q-86 0 -140 -41q-51 -39 -51 -125q0 -33 21 -68q16 -27 49 -53.5 t71 -46.5l80 -43q29 -14 82 -47q39 -25 70 -58q31 -35 49 -75q20 -47 21 -99q0 -66 -23 -121q-20 -51 -65.5 -92t-102.5 -65q-61 -27 -131 -35q33 -18 70 -49q41 -33 59 -60q29 -39 41 -71q16 -43 16 -90q0 -326 -411 -326q-61 0 -92 4q-16 2 -46 7t-40 7q-27 4 -72 17 q-39 10 -57 18zM342 586q0 -61 41 -107q35 -39 111 -76q51 2 100 13q41 8 84 33q33 18 57 61q23 39 23 94q0 34 -13 62q-12 27 -34 49q-14 14 -52 39l-61 37q-66 -4 -109 -21q-53 -20 -81 -45q-33 -27 -48 -61q-18 -45 -18 -78z" />
<glyph unicode="&#xa8;" horiz-adv-x="681" d="M205 1231q0 23 8 39q10 20 23 30q25 18 30 23q16 8 39 8q43 0 72 -28q27 -27 26 -72q0 -43 -26.5 -72t-71.5 -29q-23 0 -39 9q-20 10 -30 20q-12 12 -23 33q-8 16 -8 39zM561 1231q0 41 31 72q29 29 69.5 28.5t69.5 -29t29 -71.5q0 -39 -29 -72q-27 -29 -69 -29 q-23 0 -39 9q-25 12 -31 20q-16 20 -23 33q-8 16 -8 39z" />
<glyph unicode="&#xa9;" horiz-adv-x="1554" d="M119 670q0 95 24 184q25 92 70 166t106 139q55 57 140 109q74 45 166 69q89 25 184 25t184 -25q88 -25 164 -69q82 -49 141 -109q61 -61 109 -139q41 -68 68 -166q25 -89 24 -184q0 -95 -24 -185q-27 -94 -68 -163q-51 -84 -109 -140q-68 -63 -141 -108q-76 -45 -164 -70 q-89 -25 -184 -24q-144 0 -270 55q-127 55 -219.5 147t-147.5 219q-53 122 -53 269zM188 670q0 -133 48 -242q45 -106 133 -197q80 -82 196 -133q115 -49 244 -49t242 49q115 49 198.5 133t133 197t49.5 242q0 82 -23 166q-20 74 -63 147q-39 68 -97 127q-53 57 -127 98 q-72 41 -149 62q-84 23 -164 22q-129 0 -244 -49q-113 -49 -196.5 -133t-132.5 -197q-48 -108 -48 -243zM410 664q0 111 26 188q27 76 82 131q49 49 131 76q84 27 178 26q74 0 146 -10q86 -12 123 -20l4 -187h-49l-21 105q-49 29 -92 39q-49 12 -107 12q-70 0 -116 -16 q-53 -18 -88 -60q-35 -39 -54 -110q-18 -68 -18 -172q0 -182 72 -267q70 -82 198 -82q80 0 129 17q55 18 86 43l23 119h47l-2 -199q-47 -14 -127 -27q-76 -12 -156 -12q-96 0 -176 28.5t-131 80.5q-55 55 -81.5 127t-26.5 170z" />
<glyph unicode="&#xaa;" horiz-adv-x="563" d="M92 983q0 72 23 143q23 70 67 121q47 53 112.5 84t151.5 31q41 0 78 -10q23 -6 54 -17l6 4q4 4 6 4h3q3 0 5 3q4 2 9 6t9 6h29l-96 -522l86 -15l-8 -39h-201l12 74q-10 -12 -35 -33q-16 -12 -43 -28q-27 -14 -51 -21q-27 -6 -59 -6q-37 0 -64 14q-28 15 -49 43 q-20 25 -33 68q-12 41 -12 90zM217 991q0 -70 25 -104q25 -33 65 -33q35 0 64 10q49 18 69 31l68 383q-8 6 -43 18q-23 8 -55 9q-49 0 -84 -27q-37 -28 -62 -74q-20 -41 -35 -100q-12 -56 -12 -113z" />
<glyph unicode="&#xab;" d="M111 430l12 66l416 356h61l-319 -395l182 -383h-62zM520 430l10 66l418 356h62l-322 -395l184 -383h-61z" />
<glyph unicode="&#xac;" horiz-adv-x="1380" d="M225 629v102h953v-528h-103v426h-850z" />
<glyph unicode="&#xad;" horiz-adv-x="681" d="M76 406v153h532v-153h-532z" />
<glyph unicode="&#xae;" horiz-adv-x="1554" d="M119 670q0 95 24 184q25 92 70 166t106 139q55 57 140 109q74 45 166 69q89 25 184 25t184 -25q88 -25 164 -69q82 -49 141 -109q61 -61 109 -139q41 -68 68 -166q25 -89 24 -184q0 -95 -24 -185q-27 -94 -68 -163q-51 -84 -109 -140q-68 -63 -141 -108q-76 -45 -164 -70 q-89 -25 -184 -24q-144 0 -270 55q-127 55 -219.5 147t-147.5 219q-53 122 -53 269zM188 670q0 -133 48 -242q45 -106 133 -197q80 -82 196 -133q115 -49 244 -49t242 49q115 49 198.5 133t133 197t49.5 242q0 82 -23 166q-20 74 -63 147q-39 68 -97 127q-53 57 -127 98 q-72 41 -149 62q-84 23 -164 22q-129 0 -244 -49q-113 -49 -196.5 -133t-132.5 -197q-48 -108 -48 -243zM459 1040v41h329q82 0 143.5 -16t96.5 -45q41 -35 57 -70q18 -41 19 -90q0 -80 -45 -133q-47 -57 -133 -84l213 -307l84 -17v-43h-205l-230 349h-90v-289l113 -17v-43 h-344v43l94 17v688zM698 688h68q51 0 92 10q43 10 62 29q25 25 32 53q10 37 11 78q0 49 -13 80q-12 33 -35 49q-25 18 -61 25q-49 8 -92 8h-64v-332z" />
<glyph unicode="&#xaf;" d="M145 1452v94h1059v-94h-1059z" />
<glyph unicode="&#xb0;" horiz-adv-x="817" d="M164 1051q0 63 24 120q25 59 66 101q39 39 98 65q55 25 121 25q65 0 123 -25q57 -25 98 -65.5t66 -100.5q25 -57 24 -120q0 -66 -24 -121q-27 -59 -66 -99q-41 -41 -98 -65q-58 -25 -123 -25q-66 0 -121 25q-59 27 -98 65.5t-66 98.5q-24 55 -24 121zM266 1051 q0 -43 16.5 -82t43.5 -66q29 -29 67.5 -45t79.5 -16t84 16q33 12 66 45q31 31 45 66t14 82q0 45 -14.5 81.5t-44.5 67.5q-33 33 -66 45q-43 16 -84 16.5t-80 -16t-67 -45.5q-28 -28 -43 -67q-17 -43 -17 -82z" />
<glyph unicode="&#xb1;" horiz-adv-x="1122" d="M94 0v102h955v-102h-955zM94 629v102h424v426h105v-426h426v-102h-426v-426h-105v426h-424z" />
<glyph unicode="&#xb2;" horiz-adv-x="612" d="M49 535l14 96l181 135q74 57 135 125q59 66 88 127q31 63 31 143q0 51 -29 86t-82 35q-31 0 -65 -10q-33 -10 -56 -23l-37 -98h-55l31 172l94 18q43 8 100 9q115 0 178.5 -51.5t63.5 -137.5q0 -80 -39 -143q-45 -72 -102 -127q-55 -51 -148 -121q-111 -78 -174 -127h387 l-18 -108h-498z" />
<glyph unicode="&#xb3;" horiz-adv-x="612" d="M41 549l27 186h55l6 -112q25 -14 57 -23q41 -10 72 -10q49 0 96 14q39 12 63.5 37t37.5 61q10 31 10 82q0 66 -39 97q-41 31 -100 37l-84 6l12 65l86 4q74 4 115 45q45 45 45 136q0 51 -29 79.5t-94 28.5q-37 0 -64 -8q-35 -10 -55 -21l-39 -102h-53l31 172l86 18 q39 8 104 9q58 0 105 -13q43 -12 79 -34q35 -23 51.5 -53.5t16.5 -73.5q0 -51 -14 -86q-14 -33 -47 -64q-33 -29 -70 -45q-31 -14 -94 -25q94 -12 143 -55t49 -113q0 -51 -22.5 -102t-63.5 -86t-108 -57q-61 -20 -154 -21q-66 0 -117 8q-80 13 -100 19z" />
<glyph unicode="&#xb4;" horiz-adv-x="681" d="M248 1118l6 33l244 272h213l-6 -37l-402 -268h-55z" />
<glyph unicode="&#xb5;" horiz-adv-x="1179" d="M27 -436l8 45q16 33 26 61q23 61 35 105q18 61 37 135q20 80 35 160l139 800l-135 25l8 45h307l-114 -651q-4 -16 -4 -25v-22q0 -66 37 -107q37 -39 102 -39q25 0 59 10q20 6 62 27q29 14 57 37q25 18 45 43l131 727h162l-154 -870l134 -25l-9 -45h-276v125 q-31 -31 -49 -47q-27 -25 -64 -47q-35 -23 -69.5 -37t-75.5 -14q-52 0 -86 18q-35 18 -49 59q-16 -94 -56 -262q-27 -109 -65 -231h-178z" />
<glyph unicode="&#xb6;" horiz-adv-x="1069" d="M121 963q0 86 29 159q27 70 81 119q57 51 136 74q90 27 188 26h463v-53l-94 -22v-1524h-95v1524h-170v-1524h-94l2 823q-88 0 -172 23q-78 20 -141 71q-59 47 -98 125q-35 70 -35 179z" />
<glyph unicode="&#xb7;" horiz-adv-x="512" d="M166 678q0 29 8 47q10 20 27 39q15 15 37 24q25 10 49 11q23 0 47 -10.5t38.5 -24.5t25 -39t10.5 -47.5t-10.5 -47t-25 -38.5t-39 -24.5t-46.5 -10.5q-25 0 -49 10q-22 9 -37 25q-16 18 -27 39q-8 18 -8 47z" />
<glyph unicode="&#x2219;" horiz-adv-x="512" d="M166 678q0 29 8 47q10 20 27 39q15 15 37 24q25 10 49 11q23 0 47 -10.5t38.5 -24.5t25 -39t10.5 -47.5t-10.5 -47t-25 -38.5t-39 -24.5t-46.5 -10.5q-25 0 -49 10q-22 9 -37 25q-16 18 -27 39q-8 18 -8 47z" />
<glyph unicode="&#xb8;" horiz-adv-x="681" d="M115 -406l22 74q12 -4 21 -6q4 -2 13 -2t13 -2q16 -4 27 -4h22q66 0 101 27q37 29 37 83q0 28 -13 50q-12 20 -30.5 32.5t-42.5 18.5q-14 4 -47 8l67 154h86l-33 -82q82 -10 125 -49t43 -109q0 -96 -71 -156q-70 -57 -207 -57q-47 0 -72 4q-32 6 -61 16z" />
<glyph unicode="&#xb9;" horiz-adv-x="612" d="M70 535l8 49l166 14l110 625l-172 -58l8 47l259 134h71l-133 -748l166 -14l-10 -49h-473z" />
<glyph unicode="&#xba;" horiz-adv-x="634" d="M115 1008q0 66 22 133q20 63 65.5 114.5t104.5 77.5q63 29 139 29q45 0 91 -16q39 -14 71.5 -47t46.5 -74q16 -45 17 -101q0 -68 -23 -135q-20 -61 -65 -112.5t-105 -77.5q-63 -29 -139 -29q-47 0 -92 16q-39 14 -72 48q-29 29 -45 74t-16 100zM242 997q0 -84 28 -125 q31 -43 82 -43q39 0 74 23q37 23 61 63q27 43 41 97q16 59 17 121q0 86 -31 129t-84 43q-39 0 -74 -23q-33 -20 -59 -63q-25 -41 -41 -99q-14 -51 -14 -123z" />
<glyph unicode="&#xbb;" d="M12 74l324 395l-186 383h61l293 -356l-12 -66l-418 -356h-62zM424 74l319 395l-184 383h62l290 -356l-10 -66l-418 -356h-59z" />
<glyph unicode="&#xbc;" horiz-adv-x="1536" d="M414 0h-102l964 1341h100zM72 535l8 49l166 14l110 625l-172 -58l8 47l259 134h71l-133 -748l166 -14l-10 -49h-473zM1327 159l-28 -159h-142l29 159h-367l19 97l497 550h107l-96 -544h121l-19 -103h-121zM1272 641h-2l-344 -379h278z" />
<glyph unicode="&#xbd;" horiz-adv-x="1536" d="M358 0h-102l964 1341h100zM72 535l8 49l166 14l110 625l-172 -58l8 47l259 134h71l-133 -748l166 -14l-10 -49h-473zM889 0l14 96l181 135q74 57 135 125q59 66 88 127q31 63 31 143q0 51 -29 86t-82 35q-31 0 -65 -10q-33 -10 -56 -23l-37 -98h-55l31 172l94 18 q43 8 100 9q115 0 178.5 -51.5t63.5 -137.5q0 -80 -39 -143q-45 -72 -102 -127q-55 -51 -148 -121q-111 -78 -174 -127h387l-18 -108h-498z" />
<glyph unicode="&#xbe;" horiz-adv-x="1536" d="M414 0h-102l964 1341h100zM119 549l27 186h55l6 -112q25 -14 57 -23q41 -10 72 -10q49 0 96 14q39 12 63.5 37t37.5 61q10 31 10 82q0 66 -39 97q-41 31 -100 37l-84 6l12 65l86 4q74 4 115 45q45 45 45 136q0 51 -29 79.5t-94 28.5q-37 0 -64 -8q-35 -10 -55 -21 l-39 -102h-53l31 172l86 18q39 8 104 9q58 0 105 -13q43 -12 79 -34q35 -23 51.5 -53.5t16.5 -73.5q0 -51 -14 -86q-14 -33 -47 -64q-33 -29 -70 -45q-31 -14 -94 -25q94 -12 143 -55t49 -113q0 -51 -22.5 -102t-63.5 -86t-108 -57q-61 -20 -154 -21q-66 0 -117 8 q-80 13 -100 19zM1327 159l-28 -159h-142l29 159h-367l19 97l497 550h107l-96 -544h121l-19 -103h-121zM1272 641h-2l-344 -379h278z" />
<glyph unicode="&#xbf;" d="M88 -131q0 88 20.5 155.5t69.5 127.5q47 55 121 96q76 41 176 61l60 13l59 260h80l-35 -334l-147 -29q-113 -20 -170 -104q-55 -80 -56 -234q0 -104 45 -162q47 -59 154 -59q29 0 59 6q41 8 62 15q14 4 55 22q18 8 47 29l49 164h68l-33 -254q-80 -31 -151 -48 q-84 -18 -166 -18q-187 0 -277 74t-90 219zM551 839.5q0 28.5 8 47.5q10 23 27 39q18 18 36.5 26.5t47 8.5t47.5 -9q20 -10 38.5 -26.5t26.5 -38.5q8 -18 8.5 -47t-8.5 -47q-8 -23 -26 -39q-14 -14 -39 -24.5t-47.5 -10.5t-46.5 10q-22 9 -37 25q-16 16 -27 39 q-8 18 -8 46.5z" />
<glyph unicode="&#xc0;" horiz-adv-x="1249" d="M-113 0l11 53l112 27l682 1272h191l250 -1272l124 -27l-10 -53h-475l10 53l144 27l-64 387h-528l-205 -387l135 -27l-10 -53h-367zM379 557h467l-123 651zM563 1720l6 37h203l158 -272l-4 -33h-56z" />
<glyph unicode="&#xc1;" horiz-adv-x="1249" d="M-113 0l11 53l112 27l682 1272h191l250 -1272l124 -27l-10 -53h-475l10 53l144 27l-64 387h-528l-205 -387l135 -27l-10 -53h-367zM379 557h467l-123 651zM690 1452l6 33l244 272h213l-6 -37l-402 -268h-55z" />
<glyph unicode="&#xc2;" horiz-adv-x="1249" d="M-113 0l11 53l112 27l682 1272h191l250 -1272l124 -27l-10 -53h-475l10 53l144 27l-64 387h-528l-205 -387l135 -27l-10 -53h-367zM379 557h467l-123 651zM485 1452l4 33l236 272h213l139 -272l-4 -33h-47l-207 182l-270 -182h-64z" />
<glyph unicode="&#xc3;" horiz-adv-x="1249" d="M-113 0l11 53l112 27l682 1272h191l250 -1272l124 -27l-10 -53h-475l10 53l144 27l-64 387h-528l-205 -387l135 -27l-10 -53h-367zM379 557h467l-123 651zM473 1499q12 49 31 90q20 47 45 78q28 34 67 55q35 18 94 18q51 0 86 -20q37 -22 68 -49q20 -18 61 -47 q33 -23 62 -23q20 0 49 12q25 10 35 27q16 25 22 39q8 18 15 41h53q-12 -49 -31 -90q-16 -39 -47 -76q-28 -34 -67 -55q-39 -20 -95 -21q-45 0 -84 23q-43 25 -67 47q-31 28 -62 49q-29 20 -61 20q-27 0 -51 -10q-23 -10 -35 -28q-12 -20 -21 -37q-12 -29 -16 -43h-51z" />
<glyph unicode="&#xc4;" horiz-adv-x="1249" d="M-113 0l11 53l112 27l682 1272h191l250 -1272l124 -27l-10 -53h-475l10 53l144 27l-64 387h-528l-205 -387l135 -27l-10 -53h-367zM379 557h467l-123 651zM541 1565q0 23 8 39q10 20 23 30q25 18 30 23q16 8 39 8q43 0 72 -28q27 -27 26 -72q0 -43 -26.5 -72t-71.5 -29 q-23 0 -39 9q-20 10 -30 20q-12 12 -23 33q-8 16 -8 39zM897 1565q0 41 31 72q29 29 69.5 28.5t69.5 -29t29 -71.5q0 -39 -29 -72q-27 -29 -69 -29q-23 0 -39 9q-25 12 -31 20q-16 20 -23 33q-8 16 -8 39z" />
<glyph unicode="&#xc5;" horiz-adv-x="1249" d="M-113 0l11 53l112 27l660 1231q-39 29 -60 69q-23 45 -22 95q0 45 14 79q12 31 45 64t64 45q35 14 80 14q43 0 77.5 -14t65.5 -45q29 -29 43 -64q16 -39 16 -79q0 -55 -28 -103q-29 -49 -72 -72l240 -1220l124 -27l-10 -53h-475l10 53l144 27l-64 387h-528l-205 -387 l135 -27l-10 -53h-367zM379 557h467l-123 651zM668 1475q0 -29 8 -47.5t24 -38.5q12 -16 39 -27q25 -10 45 -10h7q23 0 47 10q14 6 39 27q16 12 26 38q10 25 10 47.5t-10 47t-26 41.5q-16 18 -39 26q-18 8 -47 8q-31 0 -50 -8q-20 -8 -39 -26q-16 -16 -26 -41q-8 -18 -8 -47 z" />
<glyph unicode="&#xc6;" horiz-adv-x="1820" d="M-145 0l8 53l131 27l856 1190l-160 18l8 53h1090l-57 -321h-66l6 217q-33 4 -76 6q-10 0 -28.5 2t-33.5 3t-30 1q-16 0 -44.5 1t-43.5 1h-65h-220l-92 -524h363l59 160h64l-74 -412h-64l-2 162h-360l-98 -547h264q20 0 59 1t58 1q72 0 100 2l76 6q37 4 49 6l100 248h66 l-82 -354h-1069l8 53l176 27l68 387h-412l-274 -387l151 -27l-8 -53h-401zM453 557h362l119 674z" />
<glyph unicode="&#xc7;" horiz-adv-x="1363" d="M115 522q0 197 61 350q61 156 172 263q106 104 264 163q152 57 334 58q143 0 244 -15q102 -14 194 -36l-45 -293h-63v174q-61 43 -152 67q-82 23 -184 23q-137 0 -250 -55q-121 -59 -198 -154q-86 -106 -132 -246q-47 -147 -47 -317q0 -92 23 -176q20 -80 72 -140 q49 -59 124 -92q74 -33 185 -33q55 0 121 11q63 10 110 26q55 20 94 39q47 23 74 45l72 201h65l-61 -315q-39 -16 -105 -33q-78 -20 -120 -29q-84 -16 -133 -20q-68 -6 -136 -6q-147 0 -252 38q-113 41 -182 109q-78 74 -112 172q-37 100 -37 221zM463 -406l22 74 q12 -4 21 -6q4 -2 13 -2t13 -2q16 -4 27 -4h22q66 0 101 27q37 29 37 83q0 28 -13 50q-12 20 -30.5 32.5t-42.5 18.5q-14 4 -47 8l67 154h86l-33 -82q82 -10 125 -49t43 -109q0 -96 -71 -156q-70 -57 -207 -57q-47 0 -72 4q-32 6 -61 16z" />
<glyph unicode="&#xc8;" horiz-adv-x="1249" d="M-25 0l11 53l176 27l209 1182l-168 26l10 53h1006l-58 -321h-65l6 217q-29 2 -78 6q-2 0 -37 3t-53 3q-16 0 -46 1t-44 1h-64h-219l-92 -524h360l62 160h63l-73 -412h-64l-2 162h-362l-97 -547h265q20 0 59 1t57 1q70 0 99 2q57 4 77 6q33 4 48 6l102 248h65l-81 -354 h-1072zM557 1720l6 37h203l158 -272l-4 -33h-56z" />
<glyph unicode="&#xc9;" horiz-adv-x="1249" d="M-25 0l11 53l176 27l209 1182l-168 26l10 53h1006l-58 -321h-65l6 217q-29 2 -78 6q-2 0 -37 3t-53 3q-16 0 -46 1t-44 1h-64h-219l-92 -524h360l62 160h63l-73 -412h-64l-2 162h-362l-97 -547h265q20 0 59 1t57 1q70 0 99 2q57 4 77 6q33 4 48 6l102 248h65l-81 -354 h-1072zM656 1452l6 33l244 272h213l-6 -37l-402 -268h-55z" />
<glyph unicode="&#xca;" horiz-adv-x="1249" d="M-25 0l11 53l176 27l209 1182l-168 26l10 53h1006l-58 -321h-65l6 217q-29 2 -78 6q-2 0 -37 3t-53 3q-16 0 -46 1t-44 1h-64h-219l-92 -524h360l62 160h63l-73 -412h-64l-2 162h-362l-97 -547h265q20 0 59 1t57 1q70 0 99 2q57 4 77 6q33 4 48 6l102 248h65l-81 -354 h-1072zM516 1452l4 33l236 272h213l139 -272l-4 -33h-47l-207 182l-270 -182h-64z" />
<glyph unicode="&#xcb;" horiz-adv-x="1249" d="M-25 0l11 53l176 27l209 1182l-168 26l10 53h1006l-58 -321h-65l6 217q-29 2 -78 6q-2 0 -37 3t-53 3q-16 0 -46 1t-44 1h-64h-219l-92 -524h360l62 160h63l-73 -412h-64l-2 162h-362l-97 -547h265q20 0 59 1t57 1q70 0 99 2q57 4 77 6q33 4 48 6l102 248h65l-81 -354 h-1072zM516 1596q0 23 8 39q10 20 23 30q25 18 30 23q16 8 39 8q43 0 72 -28q27 -27 26 -72q0 -43 -26.5 -72t-71.5 -29q-23 0 -39 9q-20 10 -30 20q-12 12 -23 33q-8 16 -8 39zM872 1596q0 41 31 72q29 29 69.5 28.5t69.5 -29t29 -71.5q0 -39 -29 -72q-27 -29 -69 -29 q-23 0 -39 9q-25 12 -31 20q-16 20 -23 33q-8 16 -8 39z" />
<glyph unicode="&#xcc;" horiz-adv-x="681" d="M-8 0l8 53l176 27l207 1182l-166 26l8 53h537l-8 -53l-179 -26l-206 -1182l166 -27l-9 -53h-534zM291 1720l6 37h203l158 -272l-4 -33h-56z" />
<glyph unicode="&#xcd;" horiz-adv-x="681" d="M-8 0l8 53l176 27l207 1182l-166 26l8 53h537l-8 -53l-179 -26l-206 -1182l166 -27l-9 -53h-534zM402 1452l6 33l244 272h213l-6 -37l-402 -268h-55z" />
<glyph unicode="&#xce;" horiz-adv-x="681" d="M-8 0l8 53l176 27l207 1182l-166 26l8 53h537l-8 -53l-179 -26l-206 -1182l166 -27l-9 -53h-534zM219 1452l4 33l236 272h213l139 -272l-4 -33h-47l-207 182l-270 -182h-64z" />
<glyph unicode="&#xcf;" horiz-adv-x="681" d="M-8 0l8 53l176 27l207 1182l-166 26l8 53h537l-8 -53l-179 -26l-206 -1182l166 -27l-9 -53h-534zM250 1596q0 23 8 39q10 20 23 30q25 18 30 23q16 8 39 8q43 0 72 -28q27 -27 26 -72q0 -43 -26.5 -72t-71.5 -29q-23 0 -39 9q-20 10 -30 20q-12 12 -23 33q-8 16 -8 39z M606 1596q0 41 31 72q29 29 69.5 28.5t69.5 -29t29 -71.5q0 -39 -29 -72q-27 -29 -69 -29q-23 0 -39 9q-25 12 -31 20q-16 20 -23 33q-8 16 -8 39z" />
<glyph unicode="&#xd0;" horiz-adv-x="1478" d="M-23 0l9 53l176 27l96 549h-180l14 82h180l99 551l-168 26l10 53h571q162 0 285 -36q129 -39 209 -107q84 -72 127 -172q43 -101 43 -233q0 -174 -57 -328q-53 -141 -162 -250q-102 -102 -256 -162q-147 -57 -344 -57h-125q-23 0 -68 1t-65 1q-23 0 -65 1t-60 1h-99h-170 zM356 94l127 -6q43 -2 138 -2q152 0 268.5 49t193.5 139q74 84 115 220q39 125 39 290q0 131 -35 215q-37 90 -102 144q-72 57 -164 82q-102 27 -213 26h-162l-94 -540h375l-17 -82h-374z" />
<glyph unicode="&#xd1;" horiz-adv-x="1363" d="M-14 0l10 53l174 27l209 1182l-168 26l10 53h387l400 -1005l161 926l-176 26l11 53h456l-10 -53l-174 -26l-223 -1262h-99l-481 1206l-199 -1126l177 -27l-11 -53h-454zM563 1499q12 49 31 90q20 47 45 78q28 34 67 55q35 18 94 18q51 0 86 -20q37 -22 68 -49 q20 -18 61 -47q33 -23 62 -23q20 0 49 12q25 10 35 27q16 25 22 39q8 18 15 41h53q-12 -49 -31 -90q-16 -39 -47 -76q-28 -34 -67 -55q-39 -20 -95 -21q-45 0 -84 23q-43 25 -67 47q-31 28 -62 49q-29 20 -61 20q-27 0 -51 -10q-23 -10 -35 -28q-12 -20 -21 -37 q-12 -29 -16 -43h-51z" />
<glyph unicode="&#xd2;" horiz-adv-x="1478" d="M102 514q0 96 25 219q20 106 68 199q49 100 110 172q68 80 150 133q92 59 190 88q104 31 225 31q125 0 228 -39q104 -41 176 -109q70 -66 115 -170q43 -98 43 -217q0 -84 -21 -196q-18 -98 -59 -195q-37 -86 -103 -174q-59 -80 -147 -143q-80 -57 -195 -97 q-109 -37 -243 -36q-125 0 -228 38q-100 39 -176 111q-72 68 -115 168q-43 98 -43 217zM303 504q0 -104 27 -182q29 -84 73 -138q47 -57 117 -88q68 -31 150 -30q98 0 170 34q82 39 139 95q66 61 111 137q47 80 77 164q33 92 47 172q16 92 17 163q0 104 -27 185 q-27 82 -76 139q-49 59 -118 90q-68 31 -152 31q-92 0 -170 -37q-82 -39 -137 -94q-68 -68 -109 -139q-51 -88 -77 -164q-29 -78 -46 -174q-16 -92 -16 -164zM733 1720l6 37h203l158 -272l-4 -33h-56z" />
<glyph unicode="&#xd3;" horiz-adv-x="1478" d="M102 514q0 96 25 219q20 106 68 199q49 100 110 172q68 80 150 133q92 59 190 88q104 31 225 31q125 0 228 -39q104 -41 176 -109q70 -66 115 -170q43 -98 43 -217q0 -84 -21 -196q-18 -98 -59 -195q-37 -86 -103 -174q-59 -80 -147 -143q-80 -57 -195 -97 q-109 -37 -243 -36q-125 0 -228 38q-100 39 -176 111q-72 68 -115 168q-43 98 -43 217zM303 504q0 -104 27 -182q29 -84 73 -138q47 -57 117 -88q68 -31 150 -30q98 0 170 34q82 39 139 95q66 61 111 137q47 80 77 164q33 92 47 172q16 92 17 163q0 104 -27 185 q-27 82 -76 139q-49 59 -118 90q-68 31 -152 31q-92 0 -170 -37q-82 -39 -137 -94q-68 -68 -109 -139q-51 -88 -77 -164q-29 -78 -46 -174q-16 -92 -16 -164zM836 1452l6 33l244 272h213l-6 -37l-402 -268h-55z" />
<glyph unicode="&#xd4;" horiz-adv-x="1478" d="M102 514q0 96 25 219q20 106 68 199q49 100 110 172q68 80 150 133q92 59 190 88q104 31 225 31q125 0 228 -39q104 -41 176 -109q70 -66 115 -170q43 -98 43 -217q0 -84 -21 -196q-18 -98 -59 -195q-37 -86 -103 -174q-59 -80 -147 -143q-80 -57 -195 -97 q-109 -37 -243 -36q-125 0 -228 38q-100 39 -176 111q-72 68 -115 168q-43 98 -43 217zM303 504q0 -104 27 -182q29 -84 73 -138q47 -57 117 -88q68 -31 150 -30q98 0 170 34q82 39 139 95q66 61 111 137q47 80 77 164q33 92 47 172q16 92 17 163q0 104 -27 185 q-27 82 -76 139q-49 59 -118 90q-68 31 -152 31q-92 0 -170 -37q-82 -39 -137 -94q-68 -68 -109 -139q-51 -88 -77 -164q-29 -78 -46 -174q-16 -92 -16 -164zM627 1452l4 33l236 272h213l139 -272l-4 -33h-47l-207 182l-270 -182h-64z" />
<glyph unicode="&#xd5;" horiz-adv-x="1478" d="M102 514q0 96 25 219q20 106 68 199q49 100 110 172q68 80 150 133q92 59 190 88q104 31 225 31q125 0 228 -39q104 -41 176 -109q70 -66 115 -170q43 -98 43 -217q0 -84 -21 -196q-18 -98 -59 -195q-37 -86 -103 -174q-59 -80 -147 -143q-80 -57 -195 -97 q-109 -37 -243 -36q-125 0 -228 38q-100 39 -176 111q-72 68 -115 168q-43 98 -43 217zM303 504q0 -104 27 -182q29 -84 73 -138q47 -57 117 -88q68 -31 150 -30q98 0 170 34q82 39 139 95q66 61 111 137q47 80 77 164q33 92 47 172q16 92 17 163q0 104 -27 185 q-27 82 -76 139q-49 59 -118 90q-68 31 -152 31q-92 0 -170 -37q-82 -39 -137 -94q-68 -68 -109 -139q-51 -88 -77 -164q-29 -78 -46 -174q-16 -92 -16 -164zM594 1499q12 49 31 90q20 47 45 78q28 34 67 55q35 18 94 18q51 0 86 -20q37 -22 68 -49q20 -18 61 -47 q33 -23 62 -23q20 0 49 12q25 10 35 27q16 25 22 39q8 18 15 41h53q-12 -49 -31 -90q-16 -39 -47 -76q-28 -34 -67 -55q-39 -20 -95 -21q-45 0 -84 23q-43 25 -67 47q-31 28 -62 49q-29 20 -61 20q-27 0 -51 -10q-23 -10 -35 -28q-12 -20 -21 -37q-12 -29 -16 -43h-51z" />
<glyph unicode="&#xd6;" horiz-adv-x="1478" d="M102 514q0 96 25 219q20 106 68 199q49 100 110 172q68 80 150 133q92 59 190 88q104 31 225 31q125 0 228 -39q104 -41 176 -109q70 -66 115 -170q43 -98 43 -217q0 -84 -21 -196q-18 -98 -59 -195q-37 -86 -103 -174q-59 -80 -147 -143q-80 -57 -195 -97 q-109 -37 -243 -36q-125 0 -228 38q-100 39 -176 111q-72 68 -115 168q-43 98 -43 217zM303 504q0 -104 27 -182q29 -84 73 -138q47 -57 117 -88q68 -31 150 -30q98 0 170 34q82 39 139 95q66 61 111 137q47 80 77 164q33 92 47 172q16 92 17 163q0 104 -27 185 q-27 82 -76 139q-49 59 -118 90q-68 31 -152 31q-92 0 -170 -37q-82 -39 -137 -94q-68 -68 -109 -139q-51 -88 -77 -164q-29 -78 -46 -174q-16 -92 -16 -164zM639 1596q0 23 8 39q10 20 23 30q25 18 30 23q16 8 39 8q43 0 72 -28q27 -27 26 -72q0 -43 -26.5 -72t-71.5 -29 q-23 0 -39 9q-20 10 -30 20q-12 12 -23 33q-8 16 -8 39zM995 1596q0 41 31 72q29 29 69.5 28.5t69.5 -29t29 -71.5q0 -39 -29 -72q-27 -29 -69 -29q-23 0 -39 9q-25 12 -31 20q-16 20 -23 33q-8 16 -8 39z" />
<glyph unicode="&#xd7;" horiz-adv-x="1380" d="M293 336l344 346l-344 342l74 74l342 -344l346 344l69 -72l-344 -344l344 -346l-69 -72l-346 344l-347 -344z" />
<glyph unicode="&#xd8;" horiz-adv-x="1478" d="M-23 -55l236 235q-55 72 -82 152q-29 86 -29 182t25 219q20 106 68 199q49 100 110 172q68 80 150 133q92 59 190 88q104 31 225 31q115 0 215 -35q98 -34 172 -98l170 168h115l-227 -228q55 -68 86 -153.5t31 -188.5q0 -84 -21 -196q-18 -98 -59 -195q-37 -86 -103 -174 q-59 -80 -147 -143q-80 -57 -195 -97q-109 -37 -243 -36q-121 0 -220 36q-100 37 -174 103l-174 -174h-119zM303 504q0 -119 33 -203l817 817q-53 80 -123 117q-78 41 -172 41q-92 0 -170 -37q-82 -39 -137 -94q-68 -68 -109 -139q-51 -88 -77 -164q-29 -78 -46 -174 q-16 -92 -16 -164zM375 223q49 -74 123 -117q70 -41 172 -40q98 0 170 34q82 39 139 95q66 61 111 137q47 80 77 164q33 92 47 172q16 92 17 163q0 115 -37 211z" />
<glyph unicode="&#xd9;" horiz-adv-x="1478" d="M188 1288l9 53h536l-8 -53l-178 -26l-141 -805q-2 -10 -4.5 -29.5t-2.5 -21.5q-4 -33 -4 -52q0 -59 19 -108q18 -51 53 -82q41 -37 92 -53q59 -18 137 -19q113 0 193 31q84 33 137 80q55 49 86 114q35 72 45 136l141 809l-174 26l9 53h456l-8 -53l-176 -26l-141 -801 q-14 -86 -58 -178q-40 -86 -110 -154q-72 -68 -174 -109q-104 -41 -242 -40q-236 0 -356.5 94t-120.5 274q0 35 2 55l5 29t3 21l141 809zM663 1720l6 37h203l158 -272l-4 -33h-56z" />
<glyph unicode="&#xda;" horiz-adv-x="1478" d="M188 1288l9 53h536l-8 -53l-178 -26l-141 -805q-2 -10 -4.5 -29.5t-2.5 -21.5q-4 -33 -4 -52q0 -59 19 -108q18 -51 53 -82q41 -37 92 -53q59 -18 137 -19q113 0 193 31q84 33 137 80q55 49 86 114q35 72 45 136l141 809l-174 26l9 53h456l-8 -53l-176 -26l-141 -801 q-14 -86 -58 -178q-40 -86 -110 -154q-72 -68 -174 -109q-104 -41 -242 -40q-236 0 -356.5 94t-120.5 274q0 35 2 55l5 29t3 21l141 809zM821 1452l6 33l244 272h213l-6 -37l-402 -268h-55z" />
<glyph unicode="&#xdb;" horiz-adv-x="1478" d="M188 1288l9 53h536l-8 -53l-178 -26l-141 -805q-2 -10 -4.5 -29.5t-2.5 -21.5q-4 -33 -4 -52q0 -59 19 -108q18 -51 53 -82q41 -37 92 -53q59 -18 137 -19q113 0 193 31q84 33 137 80q55 49 86 114q35 72 45 136l141 809l-174 26l9 53h456l-8 -53l-176 -26l-141 -801 q-14 -86 -58 -178q-40 -86 -110 -154q-72 -68 -174 -109q-104 -41 -242 -40q-236 0 -356.5 94t-120.5 274q0 35 2 55l5 29t3 21l141 809zM661 1452l4 33l236 272h213l139 -272l-4 -33h-47l-207 182l-270 -182h-64z" />
<glyph unicode="&#xdc;" horiz-adv-x="1478" d="M188 1288l9 53h536l-8 -53l-178 -26l-141 -805q-2 -10 -4.5 -29.5t-2.5 -21.5q-4 -33 -4 -52q0 -59 19 -108q18 -51 53 -82q41 -37 92 -53q59 -18 137 -19q113 0 193 31q84 33 137 80q55 49 86 114q35 72 45 136l141 809l-174 26l9 53h456l-8 -53l-176 -26l-141 -801 q-14 -86 -58 -178q-40 -86 -110 -154q-72 -68 -174 -109q-104 -41 -242 -40q-236 0 -356.5 94t-120.5 274q0 35 2 55l5 29t3 21l141 809zM705 1596q0 23 8 39q10 20 23 30q25 18 30 23q16 8 39 8q43 0 72 -28q27 -27 26 -72q0 -43 -26.5 -72t-71.5 -29q-23 0 -39 9 q-20 10 -30 20q-12 12 -23 33q-8 16 -8 39zM1061 1596q0 41 31 72q29 29 69.5 28.5t69.5 -29t29 -71.5q0 -39 -29 -72q-27 -29 -69 -29q-23 0 -39 9q-25 12 -31 20q-16 20 -23 33q-8 16 -8 39z" />
<glyph unicode="&#xdd;" horiz-adv-x="1138" d="M117 1288l10 53h547l-10 -53l-195 -26l188 -627l394 627l-177 26l11 53h436l-10 -53l-152 -26l-471 -734l-80 -448l209 -27l-8 -53h-621l11 53l217 27l78 442l-230 740zM637 1452l6 33l244 272h213l-6 -37l-402 -268h-55z" />
<glyph unicode="&#xde;" horiz-adv-x="1249" d="M-10 0l10 53l162 27l209 1182l-156 26l10 53h525l-11 -53l-176 -26l-33 -179h172q113 0 205 -26q82 -23 140 -72q57 -47 81.5 -112.5t24.5 -145.5q0 -92 -33 -184q-29 -80 -100 -146q-66 -59 -174 -94q-111 -35 -258 -35h-201l-33 -188l219 -27l-10 -53h-573zM403 358 h162q197 0 293 90.5t96 266.5q0 143 -73.5 210.5t-216.5 67.5h-150z" />
<glyph unicode="&#xdf;" d="M-57 0l8 45l143 25l176 991q16 100 60 178q39 70 96 119q45 39 125 63q63 20 145 21q76 0 127 -15q55 -15 92 -49q41 -37 58 -88q18 -55 18 -133q0 -23 -4 -76q-2 -37 -12 -84q-72 -8 -103 -14q-59 -10 -96 -29q-45 -23 -71 -63q-29 -45 -29 -117q0 -49 18 -82 q20 -37 45 -61q28 -28 62 -55.5t61 -61.5q31 -37 47 -76q18 -43 19 -104q0 -78 -23 -146q-20 -59 -67 -110q-43 -47 -113 -72q-74 -27 -156 -26q-18 0 -63 4q-23 2 -64 10t-57 14q-33 12 -41 19l35 192h45l10 -94q20 -31 58 -47q41 -18 90 -19q40 0 73 13q31 10 58 41 q23 27 39 67q14 37 14 96q0 49 -18 86q-20 41 -46 66q-39 39 -61.5 55.5t-58.5 57.5q-29 33 -47.5 71.5t-18.5 100.5q0 82 25 139q25 58 67 98q49 45 97 64q51 20 114 33q16 92 17 145q0 92 -39 131t-115 39q-43 0 -80 -12q-41 -14 -70 -43q-35 -35 -53 -78 q-23 -53 -35 -119l-194 -1110h-307z" />
<glyph unicode="&#xe0;" d="M61 313q0 84 19 168q16 78 55 154q37 76 84 133t113 104q61 43 135 68t154 25q66 0 120 -13q70 -16 107 -30l6 6q2 2 4 2t4 2q4 2 8 6q4 2 11.5 9t11.5 9h53l-158 -886l113 -25l-6 -45h-287l31 156q-82 -88 -162 -133q-77 -43 -147 -43q-59 0 -107 20q-51 23 -86 63 q-31 37 -55 105q-21 59 -21 145zM240 340q0 -68 14 -109q16 -49 37 -73q23 -31 51 -41q31 -12 61 -13q37 0 66 10.5t66 32.5q31 18 61 43q27 23 55 54l109 594q-18 12 -35 20q-25 12 -37 16q-14 4 -39 9q-14 2 -47 2q-84 0 -151 -49q-66 -47 -113 -129q-53 -92 -74 -175 q-24 -98 -24 -192zM414 1386l6 37h203l158 -272l-4 -33h-56z" />
<glyph unicode="&#xe1;" d="M61 313q0 84 19 168q16 78 55 154q37 76 84 133t113 104q61 43 135 68t154 25q66 0 120 -13q70 -16 107 -30l6 6q2 2 4 2t4 2q4 2 8 6q4 2 11.5 9t11.5 9h53l-158 -886l113 -25l-6 -45h-287l31 156q-82 -88 -162 -133q-77 -43 -147 -43q-59 0 -107 20q-51 23 -86 63 q-31 37 -55 105q-21 59 -21 145zM240 340q0 -68 14 -109q16 -49 37 -73q23 -31 51 -41q31 -12 61 -13q37 0 66 10.5t66 32.5q31 18 61 43q27 23 55 54l109 594q-18 12 -35 20q-25 12 -37 16q-14 4 -39 9q-14 2 -47 2q-84 0 -151 -49q-66 -47 -113 -129q-53 -92 -74 -175 q-24 -98 -24 -192zM516 1118l6 33l244 272h213l-6 -37l-402 -268h-55z" />
<glyph unicode="&#xe2;" d="M61 313q0 84 19 168q16 78 55 154q37 76 84 133t113 104q61 43 135 68t154 25q66 0 120 -13q70 -16 107 -30l6 6q2 2 4 2t4 2q4 2 8 6q4 2 11.5 9t11.5 9h53l-158 -886l113 -25l-6 -45h-287l31 156q-82 -88 -162 -133q-77 -43 -147 -43q-59 0 -107 20q-51 23 -86 63 q-31 37 -55 105q-21 59 -21 145zM240 340q0 -68 14 -109q16 -49 37 -73q23 -31 51 -41q31 -12 61 -13q37 0 66 10.5t66 32.5q31 18 61 43q27 23 55 54l109 594q-18 12 -35 20q-25 12 -37 16q-14 4 -39 9q-14 2 -47 2q-84 0 -151 -49q-66 -47 -113 -129q-53 -92 -74 -175 q-24 -98 -24 -192zM344 1118l4 33l236 272h213l139 -272l-4 -33h-47l-207 182l-270 -182h-64z" />
<glyph unicode="&#xe3;" d="M61 313q0 84 19 168q16 78 55 154q37 76 84 133t113 104q61 43 135 68t154 25q66 0 120 -13q70 -16 107 -30l6 6q2 2 4 2t4 2q4 2 8 6q4 2 11.5 9t11.5 9h53l-158 -886l113 -25l-6 -45h-287l31 156q-82 -88 -162 -133q-77 -43 -147 -43q-59 0 -107 20q-51 23 -86 63 q-31 37 -55 105q-21 59 -21 145zM240 340q0 -68 14 -109q16 -49 37 -73q23 -31 51 -41q31 -12 61 -13q37 0 66 10.5t66 32.5q31 18 61 43q27 23 55 54l109 594q-18 12 -35 20q-25 12 -37 16q-14 4 -39 9q-14 2 -47 2q-84 0 -151 -49q-66 -47 -113 -129q-53 -92 -74 -175 q-24 -98 -24 -192zM332 1139q12 49 31 90q20 47 45 78q28 34 67 55q35 18 94 18q51 0 86 -20q37 -22 68 -49q20 -18 61 -47q33 -23 62 -23q20 0 49 12q25 10 35 27q16 25 22 39q8 18 15 41h53q-12 -49 -31 -90q-16 -39 -47 -76q-28 -34 -67 -55q-39 -20 -95 -21 q-45 0 -84 23q-43 25 -67 47q-31 28 -62 49q-29 20 -61 20q-27 0 -51 -10q-23 -10 -35 -28q-12 -20 -21 -37q-12 -29 -16 -43h-51z" />
<glyph unicode="&#xe4;" d="M61 313q0 84 19 168q16 78 55 154q37 76 84 133t113 104q61 43 135 68t154 25q66 0 120 -13q70 -16 107 -30l6 6q2 2 4 2t4 2q4 2 8 6q4 2 11.5 9t11.5 9h53l-158 -886l113 -25l-6 -45h-287l31 156q-82 -88 -162 -133q-77 -43 -147 -43q-59 0 -107 20q-51 23 -86 63 q-31 37 -55 105q-21 59 -21 145zM240 340q0 -68 14 -109q16 -49 37 -73q23 -31 51 -41q31 -12 61 -13q37 0 66 10.5t66 32.5q31 18 61 43q27 23 55 54l109 594q-18 12 -35 20q-25 12 -37 16q-14 4 -39 9q-14 2 -47 2q-84 0 -151 -49q-66 -47 -113 -129q-53 -92 -74 -175 q-24 -98 -24 -192zM381 1231q0 23 8 39q10 20 23 30q25 18 30 23q16 8 39 8q43 0 72 -28q27 -27 26 -72q0 -43 -26.5 -72t-71.5 -29q-23 0 -39 9q-20 10 -30 20q-12 12 -23 33q-8 16 -8 39zM737 1231q0 41 31 72q29 29 69.5 28.5t69.5 -29t29 -71.5q0 -39 -29 -72 q-27 -29 -69 -29q-23 0 -39 9q-25 12 -31 20q-16 20 -23 33q-8 16 -8 39z" />
<glyph unicode="&#xe5;" d="M61 313q0 84 19 168q16 78 55 154q37 76 84 133t113 104q61 43 135 68t154 25q66 0 120 -13q70 -16 107 -30l6 6q2 2 4 2t4 2q4 2 8 6q4 2 11.5 9t11.5 9h53l-158 -886l113 -25l-6 -45h-287l31 156q-82 -88 -162 -133q-77 -43 -147 -43q-59 0 -107 20q-51 23 -86 63 q-31 37 -55 105q-21 59 -21 145zM240 340q0 -68 14 -109q16 -49 37 -73q23 -31 51 -41q31 -12 61 -13q37 0 66 10.5t66 32.5q31 18 61 43q27 23 55 54l109 594q-18 12 -35 20q-25 12 -37 16q-14 4 -39 9q-14 2 -47 2q-84 0 -151 -49q-66 -47 -113 -129q-53 -92 -74 -175 q-24 -98 -24 -192zM873 1278q0 -41 -16.5 -80t-43 -65.5t-65.5 -43t-80 -16.5q-39 0 -78 16.5t-65.5 43t-43 65.5t-16.5 80q0 39 16.5 78t43 65.5t65.5 43t78 16.5q41 0 80 -16.5t65.5 -43t43 -65.5t16.5 -78zM793 1278q0 23 -10 47q-8 23 -26.5 39t-39.5 27q-25 10 -49 10 q-23 0 -47 -10q-23 -10 -39 -26.5t-27 -39.5q-10 -25 -10 -47q0 -25 10 -49q10 -27 27 -39q25 -20 39 -27q25 -10 47 -10q25 0 49 10q14 6 39 27q16 12 27 39q10 24 10 49z" />
<glyph unicode="&#xe6;" horiz-adv-x="1363" d="M63 317q0 135 41 246q45 123 115 207q74 88 176.5 141.5t222.5 53.5q57 0 121 -23q66 -23 103 -51q51 39 100 55q58 18 135 19q115 0 178 -52q66 -53 66 -143q0 -63 -37 -125q-33 -53 -104 -106q-63 -47 -170 -82q-100 -33 -232 -43q-4 -37 -6 -57.5t-2 -59.5 q0 -47 8 -80q9 -37 31 -67q20 -31 55 -48q37 -18 92 -18q41 0 74 8q31 8 68 23q31 12 61 30q33 18 58 39l28 -43q-35 -31 -69 -55q-41 -29 -84 -51q-45 -25 -97 -39q-55 -16 -104 -16q-47 0 -92 10q-41 10 -72 28q-37 25 -59 52q-27 33 -47 77q-41 -41 -76 -67 q-39 -31 -82 -53q-45 -25 -80 -35q-39 -12 -80 -12q-47 0 -92 22q-43 23 -78 66q-33 41 -51 106q-19 63 -19 143zM242 336q0 -66 10 -103q14 -49 33 -73q20 -27 46.5 -41.5t59.5 -14.5q25 0 55 11q28 9 56 24q31 16 53 37q6 6 22.5 18.5t24.5 20.5q-2 6 -3 20.5t-1 20.5 q-2 16 -2 53q0 143 39 268t133 242q-23 16 -84 45q-43 20 -92 21q-45 0 -94 -23q-39 -18 -84 -63q-39 -39 -72 -94q-35 -57 -53 -113q-23 -68 -35 -127q-12 -64 -12 -129zM788 475q92 9 160 37q72 29 111 66q43 41 65 90q20 47 21 106q0 53 -24.5 84t-71.5 31 q-57 0 -101 -37q-41 -35 -74 -98q-33 -61 -53 -133q-19 -64 -33 -146z" />
<glyph unicode="&#xe7;" horiz-adv-x="907" d="M63 330q0 98 23 188q20 84 61 156q41 74 91 125q53 57 112 92q61 37 125 55q65 18 129 19q25 0 78 -4q12 0 80 -13q25 -4 69 -16q34 -9 56 -19l-45 -262h-56l-16 174q-25 25 -70 45q-40 18 -98 19q-70 0 -135 -41q-72 -43 -117 -113q-49 -74 -80 -174q-31 -101 -30 -221 q0 -72 14 -117q15 -49 43 -80q27 -31 63 -45q35 -14 86 -14q82 0 158 29q72 27 139 71l31 -43q-39 -35 -63 -51q-37 -27 -88 -51q-43 -23 -105 -41q-59 -18 -119 -18q-78 0 -147 26q-57 23 -105 72q-41 45 -63 110q-21 62 -21 142zM150 -406l22 74q12 -4 21 -6q4 -2 13 -2 t13 -2q16 -4 27 -4h22q66 0 101 27q37 29 37 83q0 28 -13 50q-12 20 -30.5 32.5t-42.5 18.5q-14 4 -47 8l67 154h86l-33 -82q82 -10 125 -49t43 -109q0 -96 -71 -156q-70 -57 -207 -57q-47 0 -72 4q-32 6 -61 16z" />
<glyph unicode="&#xe8;" horiz-adv-x="907" d="M63 330q0 90 21 170q25 94 55 153q35 66 86 127q47 57 109 99q63 43 123 63q68 23 135 23t113 -15q53 -16 86 -43q35 -29 53 -65.5t18 -81.5q0 -63 -41 -122.5t-119 -105.5q-84 -49 -194 -77q-123 -33 -264 -41q0 -2 -1 -12.5t-1 -16.5t-1 -21.5t-1 -23.5q0 -43 10 -94 q10 -47 32.5 -82t65.5 -58q41 -23 105 -22q89 0 165 31q82 33 142 69l28 -43q-31 -28 -73 -55q-43 -29 -94 -53q-33 -16 -107 -37q-59 -16 -115 -16q-84 0 -147 24q-61 23 -105 70q-41 45 -63 110q-21 62 -21 146zM252 475q117 10 190 35q86 29 138 65q53 39 82 87 q27 45 26 98q0 55 -30.5 92t-88.5 37q-55 0 -110 -39q-49 -35 -94 -96q-41 -55 -70 -133q-33 -89 -43 -146zM366 1386l6 37h203l158 -272l-4 -33h-56z" />
<glyph unicode="&#xe9;" horiz-adv-x="907" d="M63 330q0 90 21 170q25 94 55 153q35 66 86 127q47 57 109 99q63 43 123 63q68 23 135 23t113 -15q53 -16 86 -43q35 -29 53 -65.5t18 -81.5q0 -63 -41 -122.5t-119 -105.5q-84 -49 -194 -77q-123 -33 -264 -41q0 -2 -1 -12.5t-1 -16.5t-1 -21.5t-1 -23.5q0 -43 10 -94 q10 -47 32.5 -82t65.5 -58q41 -23 105 -22q89 0 165 31q82 33 142 69l28 -43q-31 -28 -73 -55q-43 -29 -94 -53q-33 -16 -107 -37q-59 -16 -115 -16q-84 0 -147 24q-61 23 -105 70q-41 45 -63 110q-21 62 -21 146zM252 475q117 10 190 35q86 29 138 65q53 39 82 87 q27 45 26 98q0 55 -30.5 92t-88.5 37q-55 0 -110 -39q-49 -35 -94 -96q-41 -55 -70 -133q-33 -89 -43 -146zM520 1118l6 33l244 272h213l-6 -37l-402 -268h-55z" />
<glyph unicode="&#xea;" horiz-adv-x="907" d="M63 330q0 90 21 170q25 94 55 153q35 66 86 127q47 57 109 99q63 43 123 63q68 23 135 23t113 -15q53 -16 86 -43q35 -29 53 -65.5t18 -81.5q0 -63 -41 -122.5t-119 -105.5q-84 -49 -194 -77q-123 -33 -264 -41q0 -2 -1 -12.5t-1 -16.5t-1 -21.5t-1 -23.5q0 -43 10 -94 q10 -47 32.5 -82t65.5 -58q41 -23 105 -22q89 0 165 31q82 33 142 69l28 -43q-31 -28 -73 -55q-43 -29 -94 -53q-33 -16 -107 -37q-59 -16 -115 -16q-84 0 -147 24q-61 23 -105 70q-41 45 -63 110q-21 62 -21 146zM252 475q117 10 190 35q86 29 138 65q53 39 82 87 q27 45 26 98q0 55 -30.5 92t-88.5 37q-55 0 -110 -39q-49 -35 -94 -96q-41 -55 -70 -133q-33 -89 -43 -146zM315 1118l4 33l236 272h213l139 -272l-4 -33h-47l-207 182l-270 -182h-64z" />
<glyph unicode="&#xeb;" horiz-adv-x="907" d="M63 330q0 90 21 170q25 94 55 153q35 66 86 127q47 57 109 99q63 43 123 63q68 23 135 23t113 -15q53 -16 86 -43q35 -29 53 -65.5t18 -81.5q0 -63 -41 -122.5t-119 -105.5q-84 -49 -194 -77q-123 -33 -264 -41q0 -2 -1 -12.5t-1 -16.5t-1 -21.5t-1 -23.5q0 -43 10 -94 q10 -47 32.5 -82t65.5 -58q41 -23 105 -22q89 0 165 31q82 33 142 69l28 -43q-31 -28 -73 -55q-43 -29 -94 -53q-33 -16 -107 -37q-59 -16 -115 -16q-84 0 -147 24q-61 23 -105 70q-41 45 -63 110q-21 62 -21 146zM252 475q117 10 190 35q86 29 138 65q53 39 82 87 q27 45 26 98q0 55 -30.5 92t-88.5 37q-55 0 -110 -39q-49 -35 -94 -96q-41 -55 -70 -133q-33 -89 -43 -146zM371 1231q0 23 8 39q10 20 23 30q25 18 30 23q16 8 39 8q43 0 72 -28q27 -27 26 -72q0 -43 -26.5 -72t-71.5 -29q-23 0 -39 9q-20 10 -30 20q-12 12 -23 33 q-8 16 -8 39zM727 1231q0 41 31 72q29 29 69.5 28.5t69.5 -29t29 -71.5q0 -39 -29 -72q-27 -29 -69 -29q-23 0 -39 9q-25 12 -31 20q-16 20 -23 33q-8 16 -8 39z" />
<glyph unicode="&#xec;" horiz-adv-x="567" d="M287 70l157 -25l-8 -45h-327l153 870l-129 25l8 45h299zM123 1386l6 37h203l158 -272l-4 -33h-56z" />
<glyph unicode="&#xed;" horiz-adv-x="567" d="M287 70l157 -25l-8 -45h-327l153 870l-129 25l8 45h299zM258 1118l6 33l244 272h213l-6 -37l-402 -268h-55z" />
<glyph unicode="&#xee;" horiz-adv-x="567" d="M287 70l157 -25l-8 -45h-327l153 870l-129 25l8 45h299zM68 1118l4 33l236 272h213l139 -272l-4 -33h-47l-207 182l-270 -182h-64z" />
<glyph unicode="&#xef;" horiz-adv-x="567" d="M287 70l157 -25l-8 -45h-327l153 870l-129 25l8 45h299zM99 1231q0 23 8 39q10 20 23 30q25 18 30 23q16 8 39 8q43 0 72 -28q27 -27 26 -72q0 -43 -26.5 -72t-71.5 -29q-23 0 -39 9q-20 10 -30 20q-12 12 -23 33q-8 16 -8 39zM455 1231q0 41 31 72q29 29 69.5 28.5 t69.5 -29t29 -71.5q0 -39 -29 -72q-27 -29 -69 -29q-23 0 -39 9q-25 12 -31 20q-16 20 -23 33q-8 16 -8 39z" />
<glyph unicode="&#xf0;" d="M57 348q0 111 37 211t107 180q66 76 168 123q96 45 221 45q57 0 102 -12q31 -8 88 -37q-2 6 -5 34t-7 42q-6 27 -27 84q-4 14 -39 82q-14 29 -55 78l-325 -172l18 96l250 131q-39 33 -90 61q-53 29 -109 49l15 78q86 -23 153 -53q72 -33 137 -80l293 156l-16 -94 l-213 -115q53 -47 88 -109q39 -68 61 -139q25 -77 37 -160q12 -82 12 -170q0 -150 -28 -266q-31 -123 -96.5 -217t-165.5 -145q-102 -53 -244 -54q-82 0 -149.5 25t-116.5 74q-43 43 -74 119q-27 65 -27 155zM238 332q0 -131 53 -203q51 -70 147 -70q63 0 125 37 q59 35 107 103q45 63 73 155q27 86 27 195q0 135 -51 205q-53 72 -152 71q-66 0 -127 -37q-51 -31 -104 -104q-41 -57 -72 -156q-26 -85 -26 -196z" />
<glyph unicode="&#xf1;" d="M74 0l151 870l-116 27l8 43h276l-26 -190q35 45 79 88q43 40 86 67q49 31 91 45q43 14 96 15q45 0 82 -13q39 -12 65 -37q25 -20 41 -65q14 -37 15 -96q0 -4 -4 -33q0 -4 -2.5 -12.5t-3.5 -15.5t-1 -15l-8 -51q-4 -33 -6 -47l-88 -510l129 -25l-6 -45h-301l100 582l8 47 l9 47q4 29 6 41t2 31q0 46 -25 73q-25 29 -76 29q-39 0 -86 -21q-43 -18 -86 -51q-49 -37 -75 -69q-43 -49 -60 -78l-108 -631h-166zM291 1139q12 49 31 90q20 47 45 78q28 34 67 55q35 18 94 18q51 0 86 -20q37 -22 68 -49q20 -18 61 -47q33 -23 62 -23q20 0 49 12 q25 10 35 27q16 25 22 39q8 18 15 41h53q-12 -49 -31 -90q-16 -39 -47 -76q-28 -34 -67 -55q-39 -20 -95 -21q-45 0 -84 23q-43 25 -67 47q-31 28 -62 49q-29 20 -61 20q-27 0 -51 -10q-23 -10 -35 -28q-12 -20 -21 -37q-12 -29 -16 -43h-51z" />
<glyph unicode="&#xf2;" d="M61 375q0 117 37 223.5t107 187.5q68 80 170 132q94 47 223 47q82 0 147 -27q72 -29 117 -78q45 -47 74 -125q27 -72 27 -164q0 -117 -37 -225q-37 -106 -107 -188q-66 -76 -170 -129q-98 -49 -223 -49q-82 0 -147 26q-68 28 -117 80q-45 49 -74 123q-27 72 -27 166z M238 340q0 -137 51 -207q53 -72 147 -72q68 0 133 43q63 43 111 113q45 68 78 172q31 98 30 217q0 137 -53 209t-149 72q-66 0 -131 -41q-63 -39 -113 -113q-47 -72 -76 -174q-28 -104 -28 -219zM387 1386l6 37h203l158 -272l-4 -33h-56z" />
<glyph unicode="&#xf3;" d="M61 375q0 117 37 223.5t107 187.5q68 80 170 132q94 47 223 47q82 0 147 -27q72 -29 117 -78q45 -47 74 -125q27 -72 27 -164q0 -117 -37 -225q-37 -106 -107 -188q-66 -76 -170 -129q-98 -49 -223 -49q-82 0 -147 26q-68 28 -117 80q-45 49 -74 123q-27 72 -27 166z M238 340q0 -137 51 -207q53 -72 147 -72q68 0 133 43q63 43 111 113q45 68 78 172q31 98 30 217q0 137 -53 209t-149 72q-66 0 -131 -41q-63 -39 -113 -113q-47 -72 -76 -174q-28 -104 -28 -219zM527 1118l6 33l244 272h213l-6 -37l-402 -268h-55z" />
<glyph unicode="&#xf4;" d="M61 375q0 117 37 223.5t107 187.5q68 80 170 132q94 47 223 47q82 0 147 -27q72 -29 117 -78q45 -47 74 -125q27 -72 27 -164q0 -117 -37 -225q-37 -106 -107 -188q-66 -76 -170 -129q-98 -49 -223 -49q-82 0 -147 26q-68 28 -117 80q-45 49 -74 123q-27 72 -27 166z M238 340q0 -137 51 -207q53 -72 147 -72q68 0 133 43q63 43 111 113q45 68 78 172q31 98 30 217q0 137 -53 209t-149 72q-66 0 -131 -41q-63 -39 -113 -113q-47 -72 -76 -174q-28 -104 -28 -219zM324 1118l4 33l236 272h213l139 -272l-4 -33h-47l-207 182l-270 -182h-64z " />
<glyph unicode="&#xf5;" d="M61 375q0 117 37 223.5t107 187.5q68 80 170 132q94 47 223 47q82 0 147 -27q72 -29 117 -78q45 -47 74 -125q27 -72 27 -164q0 -117 -37 -225q-37 -106 -107 -188q-66 -76 -170 -129q-98 -49 -223 -49q-82 0 -147 26q-68 28 -117 80q-45 49 -74 123q-27 72 -27 166z M238 340q0 -137 51 -207q53 -72 147 -72q68 0 133 43q63 43 111 113q45 68 78 172q31 98 30 217q0 137 -53 209t-149 72q-66 0 -131 -41q-63 -39 -113 -113q-47 -72 -76 -174q-28 -104 -28 -219zM313 1139q12 49 31 90q20 47 45 78q28 34 67 55q35 18 94 18q51 0 86 -20 q37 -22 68 -49q20 -18 61 -47q33 -23 62 -23q20 0 49 12q25 10 35 27q16 25 22 39q8 18 15 41h53q-12 -49 -31 -90q-16 -39 -47 -76q-28 -34 -67 -55q-39 -20 -95 -21q-45 0 -84 23q-43 25 -67 47q-31 28 -62 49q-29 20 -61 20q-27 0 -51 -10q-23 -10 -35 -28 q-12 -20 -21 -37q-12 -29 -16 -43h-51z" />
<glyph unicode="&#xf6;" d="M61 375q0 117 37 223.5t107 187.5q68 80 170 132q94 47 223 47q82 0 147 -27q72 -29 117 -78q45 -47 74 -125q27 -72 27 -164q0 -117 -37 -225q-37 -106 -107 -188q-66 -76 -170 -129q-98 -49 -223 -49q-82 0 -147 26q-68 28 -117 80q-45 49 -74 123q-27 72 -27 166z M238 340q0 -137 51 -207q53 -72 147 -72q68 0 133 43q63 43 111 113q45 68 78 172q31 98 30 217q0 137 -53 209t-149 72q-66 0 -131 -41q-63 -39 -113 -113q-47 -72 -76 -174q-28 -104 -28 -219zM371 1231q0 23 8 39q10 20 23 30q25 18 30 23q16 8 39 8q43 0 72 -28 q27 -27 26 -72q0 -43 -26.5 -72t-71.5 -29q-23 0 -39 9q-20 10 -30 20q-12 12 -23 33q-8 16 -8 39zM727 1231q0 41 31 72q29 29 69.5 28.5t69.5 -29t29 -71.5q0 -39 -29 -72q-27 -29 -69 -29q-23 0 -39 9q-25 12 -31 20q-16 20 -23 33q-8 16 -8 39z" />
<glyph unicode="&#xf7;" horiz-adv-x="1122" d="M117 629v102h952v-102h-952zM496 297q0 41 26 68q29 29 70 28q39 0 67.5 -28.5t28.5 -67.5t-28.5 -67.5t-67.5 -28.5q-41 0 -70 28q-26 27 -26 68zM496 1063q0 41 26 67q29 29 70 29q39 0 67.5 -28.5t28.5 -67.5t-28.5 -67.5t-67.5 -28.5q-41 0 -70 28q-26 27 -26 68z " />
<glyph unicode="&#xf8;" d="M-27 -84l168 193q-39 49 -59 116q-20 63 -21 150q0 117 37 223.5t107 187.5q68 80 170 132q94 47 223 47q137 0 229 -74l117 131h105l-164 -188q33 -45 57 -117q20 -61 21 -146q0 -117 -37 -225q-37 -106 -107 -188q-66 -76 -170 -129q-98 -49 -223 -49q-133 0 -227 71 l-119 -135h-107zM242 354q0 -68 12 -121l487 560q-53 98 -161 98q-68 0 -131 -41q-59 -39 -107 -111q-45 -70 -74 -170q-26 -94 -26 -215zM285 150q51 -90 157 -91q72 0 131 39q61 39 109 113q47 72 74 168q27 94 26 211q0 74 -10 117z" />
<glyph unicode="&#xf9;" d="M102 186q0 18 2 33q0 4 2.5 12.5t3.5 15.5t1 15t4 25.5t4 25.5l8 47l88 510l-111 25l9 45h280l-102 -582l-8 -45q-2 -12 -3 -23t-4 -24q0 -4 -2 -13t-3 -16.5t-1 -13.5q-2 -12 -2 -30q0 -45 25 -72q25 -29 76 -29q43 0 86 19q45 18 84 49q49 37 75 69q43 49 60 78 l110 633h166l-153 -870l118 -25l-8 -45h-278l26 193q-35 -45 -80 -89q-55 -51 -83 -69q-39 -25 -93 -43q-49 -16 -94 -17q-47 0 -84 13q-31 10 -63 39q-25 20 -41 65q-15 37 -15 94zM358 1386l6 37h203l158 -272l-4 -33h-56z" />
<glyph unicode="&#xfa;" d="M102 186q0 18 2 33q0 4 2.5 12.5t3.5 15.5t1 15t4 25.5t4 25.5l8 47l88 510l-111 25l9 45h280l-102 -582l-8 -45q-2 -12 -3 -23t-4 -24q0 -4 -2 -13t-3 -16.5t-1 -13.5q-2 -12 -2 -30q0 -45 25 -72q25 -29 76 -29q43 0 86 19q45 18 84 49q49 37 75 69q43 49 60 78 l110 633h166l-153 -870l118 -25l-8 -45h-278l26 193q-35 -45 -80 -89q-55 -51 -83 -69q-39 -25 -93 -43q-49 -16 -94 -17q-47 0 -84 13q-31 10 -63 39q-25 20 -41 65q-15 37 -15 94zM496 1118l6 33l244 272h213l-6 -37l-402 -268h-55z" />
<glyph unicode="&#xfb;" d="M102 186q0 18 2 33q0 4 2.5 12.5t3.5 15.5t1 15t4 25.5t4 25.5l8 47l88 510l-111 25l9 45h280l-102 -582l-8 -45q-2 -12 -3 -23t-4 -24q0 -4 -2 -13t-3 -16.5t-1 -13.5q-2 -12 -2 -30q0 -45 25 -72q25 -29 76 -29q43 0 86 19q45 18 84 49q49 37 75 69q43 49 60 78 l110 633h166l-153 -870l118 -25l-8 -45h-278l26 193q-35 -45 -80 -89q-55 -51 -83 -69q-39 -25 -93 -43q-49 -16 -94 -17q-47 0 -84 13q-31 10 -63 39q-25 20 -41 65q-15 37 -15 94zM311 1118l4 33l236 272h213l139 -272l-4 -33h-47l-207 182l-270 -182h-64z" />
<glyph unicode="&#xfc;" d="M102 186q0 18 2 33q0 4 2.5 12.5t3.5 15.5t1 15t4 25.5t4 25.5l8 47l88 510l-111 25l9 45h280l-102 -582l-8 -45q-2 -12 -3 -23t-4 -24q0 -4 -2 -13t-3 -16.5t-1 -13.5q-2 -12 -2 -30q0 -45 25 -72q25 -29 76 -29q43 0 86 19q45 18 84 49q49 37 75 69q43 49 60 78 l110 633h166l-153 -870l118 -25l-8 -45h-278l26 193q-35 -45 -80 -89q-55 -51 -83 -69q-39 -25 -93 -43q-49 -16 -94 -17q-47 0 -84 13q-31 10 -63 39q-25 20 -41 65q-15 37 -15 94zM359 1231q0 23 8 39q10 20 23 30q25 18 30 23q16 8 39 8q43 0 72 -28q27 -27 26 -72 q0 -43 -26.5 -72t-71.5 -29q-23 0 -39 9q-20 10 -30 20q-12 12 -23 33q-8 16 -8 39zM715 1231q0 41 31 72q29 29 69.5 28.5t69.5 -29t29 -71.5q0 -39 -29 -72q-27 -29 -69 -29q-23 0 -39 9q-25 12 -31 20q-16 20 -23 33q-8 16 -8 39z" />
<glyph unicode="&#xfd;" horiz-adv-x="907" d="M-170 -424l37 203h45l14 -96q27 -23 82 -23q45 0 84 25q41 25 78 65q43 47 68 86q49 78 57 94l45 82l-184 858l-113 25l8 45h256l146 -731l235 405q35 59 49 107q14 45 15 86q0 39 -21 59q-23 23 -45 29l8 45h191q8 -8 16 -24.5t8 -38.5q0 -37 -16 -84q-20 -61 -66 -136 l-397 -667q-53 -92 -111 -180q-52 -80 -104 -135.5t-111 -86.5t-127 -30q-8 0 -23 1t-22 1q-27 0 -36 2l-31 6q-25 6 -35 8zM432 1118l6 33l244 272h213l-6 -37l-402 -268h-55z" />
<glyph unicode="&#xfe;" d="M-143 -436l8 47l123 24l303 1717l-133 24l8 45h303l-86 -481l-29 -152q84 82 170 132q78 45 156 45q61 0 111 -21q55 -23 90 -63q39 -45 59 -105q23 -63 23 -145q0 -76 -21 -168q-16 -78 -55 -154q-35 -72 -88 -133q-52 -61 -117 -104q-66 -45 -139 -68q-76 -25 -160 -24 q-6 0 -21.5 1t-23.5 1q-18 0 -47 4q-8 2 -22.5 4t-20.5 4q-25 4 -37 8q0 -16 -2 -27l-4 -32l-6 -31q-2 -10 -2 -23l-47 -254l159 -24l-8 -47h-444zM233 106q41 -31 82 -39t84 -8q68 0 115 22.5t94 65.5q43 39 76 95q31 51 53 114q25 70 35 125q10 53 10 123q0 68 -14 109 q-18 49 -39 73q-27 29 -55 41q-31 12 -68 13q-23 0 -59.5 -10.5t-67 -27t-69.5 -44.5q-37 -27 -68 -58z" />
<glyph unicode="&#xff;" horiz-adv-x="907" d="M-170 -424l37 203h45l14 -96q27 -23 82 -23q45 0 84 25q41 25 78 65q43 47 68 86q49 78 57 94l45 82l-184 858l-113 25l8 45h256l146 -731l235 405q35 59 49 107q14 45 15 86q0 39 -21 59q-23 23 -45 29l8 45h191q8 -8 16 -24.5t8 -38.5q0 -37 -16 -84q-20 -61 -66 -136 l-397 -667q-53 -92 -111 -180q-52 -80 -104 -135.5t-111 -86.5t-127 -30q-8 0 -23 1t-22 1q-27 0 -36 2l-31 6q-25 6 -35 8zM311 1231q0 23 8 39q10 20 23 30q25 18 30 23q16 8 39 8q43 0 72 -28q27 -27 26 -72q0 -43 -26.5 -72t-71.5 -29q-23 0 -39 9q-20 10 -30 20 q-12 12 -23 33q-8 16 -8 39zM667 1231q0 41 31 72q29 29 69.5 28.5t69.5 -29t29 -71.5q0 -39 -29 -72q-27 -29 -69 -29q-23 0 -39 9q-25 12 -31 20q-16 20 -23 33q-8 16 -8 39z" />
<glyph unicode="&#x131;" horiz-adv-x="567" d="M287 70l157 -25l-8 -45h-327l153 870l-129 25l8 45h299z" />
<glyph unicode="&#x152;" horiz-adv-x="1931" d="M102 514q0 172 52 320q53 152 151 266q96 113 240 180q141 68 325 68h72q12 0 38 -2.5t36 -2.5q12 0 33.5 -1t31.5 -1h56h764l-58 -321h-65l6 217q-29 2 -78 6q-2 0 -37 3t-53 3q-16 0 -46 1t-44 1h-64h-219l-92 -524h360l62 160h63l-73 -412h-64l-2 162h-362l-97 -547 h265q20 0 59 1t57 1q70 0 99 2q57 4 77 6q33 4 47 6l103 248h65l-81 -354h-811q-2 0 -17.5 -1t-28.5 -1q-10 0 -33.5 -1t-37.5 -1q-12 0 -40 -1t-42 -1h-78q-129 0 -231 37q-100 37 -168 104q-72 72 -105 164q-35 98 -35 215zM303 504q0 -106 25 -189q27 -88 67 -137 q47 -57 111 -84q68 -29 149 -28q53 0 107 6q55 6 82 14l205 1165q-10 4 -70 17q-41 8 -121 8q-92 0 -170 -37q-82 -39 -137 -94q-68 -68 -109 -139q-51 -88 -77 -164q-29 -78 -46 -174q-16 -92 -16 -164z" />
<glyph unicode="&#x153;" horiz-adv-x="1363" d="M61 328q0 131 33 243q34 117 99 203q68 88 155 139q90 51 209 52q86 0 143 -39q59 -41 93 -107q29 39 51 55q35 29 67 48q29 16 82 30q46 12 99 13q106 0 167.5 -49.5t61.5 -139.5q0 -59 -33 -125q-31 -63 -94 -110q-68 -51 -160 -84q-94 -33 -225 -43l-4 -21 q-2 -16 -4 -37q-4 -29 -4 -43q0 -6 -1 -20t-1 -23q0 -18 4 -63q2 -25 22 -62q12 -23 47 -43q31 -18 88 -18q41 0 74 8q31 8 68 23q31 12 61 30q33 18 58 39l28 -43q-41 -37 -67 -55q-53 -37 -84 -53q-33 -18 -95 -37q-53 -16 -102 -16q-92 0 -149 38q-59 41 -84 113 q-58 -71 -142 -111q-86 -41 -180 -40q-72 0 -123 24q-49 23 -86 70q-35 43 -53 108q-19 64 -19 146zM236 279q0 -49 6 -89q6 -37 22 -67q18 -33 39 -45q27 -16 57 -17q39 0 76 25q45 31 72 64q35 45 61 100q31 66 49 123q18 61 33 141q12 74 13 154q0 53 -9 88 q-10 43 -24 69q-16 31 -41 45q-27 16 -58 17q-61 0 -112 -51q-57 -57 -94 -138q-43 -92 -66 -194q-24 -110 -24 -225zM817 475q92 8 158 37q61 27 102 68t56 88q16 53 16 100q0 57 -23 90q-20 31 -59 31q-43 0 -84 -35q-37 -31 -72 -92q-33 -55 -57 -131q-25 -72 -37 -156z " />
<glyph unicode="&#x178;" horiz-adv-x="1138" d="M117 1288l10 53h547l-10 -53l-195 -26l188 -627l394 627l-177 26l11 53h436l-10 -53l-152 -26l-471 -734l-80 -448l209 -27l-8 -53h-621l11 53l217 27l78 442l-230 740zM504 1596q0 23 8 39q10 20 23 30q25 18 30 23q16 8 39 8q43 0 72 -28q27 -27 26 -72 q0 -43 -26.5 -72t-71.5 -29q-23 0 -39 9q-20 10 -30 20q-12 12 -23 33q-8 16 -8 39zM860 1596q0 41 31 72q29 29 69.5 28.5t69.5 -29t29 -71.5q0 -39 -29 -72q-27 -29 -69 -29q-23 0 -39 9q-25 12 -31 20q-16 20 -23 33q-8 16 -8 39z" />
<glyph unicode="&#x2c6;" horiz-adv-x="681" d="M174 1118l4 33l236 272h213l139 -272l-4 -33h-47l-207 182l-270 -182h-64z" />
<glyph unicode="&#x2da;" horiz-adv-x="681" d="M676 1278q0 -41 -16.5 -80t-43 -65.5t-65.5 -43t-80 -16.5q-39 0 -78 16.5t-65.5 43t-43 65.5t-16.5 80q0 39 16.5 78t43 65.5t65.5 43t78 16.5q41 0 80 -16.5t65.5 -43t43 -65.5t16.5 -78zM596 1278q0 23 -10 47q-8 23 -26.5 39t-39.5 27q-25 10 -49 10q-23 0 -47 -10 q-23 -10 -39 -26.5t-27 -39.5q-10 -25 -10 -47q0 -25 10 -49q10 -27 27 -39q25 -20 39 -27q25 -10 47 -10q25 0 49 10q14 6 39 27q16 12 27 39q10 24 10 49z" />
<glyph unicode="&#x2dc;" horiz-adv-x="681" d="M123 1139q12 49 31 90q20 47 45 78q28 34 67 55q35 18 94 18q51 0 86 -20q37 -22 68 -49q20 -18 61 -47q33 -23 62 -23q20 0 49 12q25 10 35 27q16 25 22 39q8 18 15 41h53q-12 -49 -31 -90q-16 -39 -47 -76q-28 -34 -67 -55q-39 -20 -95 -21q-45 0 -84 23q-43 25 -67 47 q-31 28 -62 49q-29 20 -61 20q-27 0 -51 -10q-23 -10 -35 -28q-12 -20 -21 -37q-12 -29 -16 -43h-51z" />
<glyph unicode="&#x2000;" horiz-adv-x="878" />
<glyph unicode="&#x2001;" horiz-adv-x="1757" />
<glyph unicode="&#x2002;" horiz-adv-x="878" />
<glyph unicode="&#x2003;" horiz-adv-x="1757" />
<glyph unicode="&#x2004;" horiz-adv-x="585" />
<glyph unicode="&#x2005;" horiz-adv-x="438" />
<glyph unicode="&#x2006;" horiz-adv-x="292" />
<glyph unicode="&#x2007;" horiz-adv-x="292" />
<glyph unicode="&#x2008;" horiz-adv-x="217" />
<glyph unicode="&#x2009;" horiz-adv-x="350" />
<glyph unicode="&#x200a;" horiz-adv-x="96" />
<glyph unicode="&#x2010;" horiz-adv-x="681" d="M76 406v153h532v-153h-532z" />
<glyph unicode="&#x2011;" horiz-adv-x="681" d="M76 406v153h532v-153h-532z" />
<glyph unicode="&#x2012;" horiz-adv-x="681" d="M76 406v153h532v-153h-532z" />
<glyph unicode="&#x2013;" d="M-14 426v102h1052v-102h-1052z" />
<glyph unicode="&#x2014;" horiz-adv-x="1820" d="M-14 426v102h1845v-102h-1845z" />
<glyph unicode="&#x2018;" horiz-adv-x="681" d="M301 1006q0 57 18.5 112.5t57.5 100.5q39 43 98 81q58 37 141 62v-78q-92 -29 -137 -70q-49 -45 -49 -98q0 -25 21 -41q8 -6 43 -28q25 -15 43 -37q18 -23 18 -64q0 -55 -33 -82q-35 -29 -88 -28q-25 0 -51 10q-23 8 -43 33q-20 23 -29 53q-10 35 -10 74z" />
<glyph unicode="&#x2019;" horiz-adv-x="681" d="M305 836v77q96 29 139 70q47 43 48 98q0 25 -21 41q-8 8 -43 29q-25 15 -43 37q-18 20 -18 63q0 55 32 82q35 29 88 29q25 0 52 -10q25 -9 43 -31q20 -23 28 -53q10 -35 11 -74q0 -59 -19 -115q-16 -51 -57 -98q-45 -51 -96 -84q-58 -34 -144 -61z" />
<glyph unicode="&#x201a;" horiz-adv-x="681" d="M168 -238q96 29 139 70q47 43 47 98q0 25 -20 41q-8 8 -43 29q-25 15 -43 37q-18 20 -19 63q0 55 33 82q35 29 88 29q27 0 53 -10q23 -8 41 -31q20 -23 29 -53q10 -35 10 -74q0 -59 -18 -115q-18 -51 -57 -98q-45 -51 -97 -84q-57 -35 -143 -61v77z" />
<glyph unicode="&#x201c;" horiz-adv-x="1138" d="M299 1006q0 57 18.5 112.5t57.5 100.5q39 43 98 81q58 37 141 62v-78q-92 -29 -137 -70q-49 -45 -49 -98q0 -25 21 -41q8 -6 43 -28q25 -15 43 -37q20 -25 20 -64q0 -53 -35 -81.5t-88 -28.5q-25 0 -51 10q-23 8 -43 33q-20 23 -29 53q-10 35 -10 74zM713 1006 q0 57 18.5 112.5t56.5 100.5q41 47 97 81q57 35 143 62v-78q-96 -29 -139 -70q-47 -43 -47 -98q0 -25 20 -41q8 -6 43 -28q25 -15 43 -37q18 -23 19 -64q0 -55 -33 -82q-35 -29 -88 -28q-27 0 -53 10q-18 6 -41 33q-20 23 -29 53q-10 35 -10 74z" />
<glyph unicode="&#x201d;" horiz-adv-x="1138" d="M305 836v77q96 29 139 70q47 43 48 98q0 25 -21 41q-8 8 -43 29q-25 15 -43 37q-18 20 -18 63q0 55 32 82q35 29 88 29q25 0 52 -10q25 -9 43 -31q20 -23 28 -53q10 -35 11 -74q0 -59 -19 -115q-16 -51 -57 -98q-45 -51 -96 -84q-58 -34 -144 -61zM719 836v77 q92 29 137 70q47 43 47 98q0 25 -18 41q-8 8 -43 29q-25 15 -43 37q-20 25 -21 63q0 53 35 82t86 29q27 0 53 -10q25 -9 43 -31q20 -23 29 -53q8 -27 8 -74q0 -66 -16 -115q-16 -51 -58 -98q-41 -49 -98 -84q-58 -36 -141 -61z" />
<glyph unicode="&#x201e;" horiz-adv-x="1138" d="M84 -238q92 29 137 70q47 43 47 98q0 25 -18 41q-8 8 -43 29q-25 15 -43 37q-20 25 -21 63q0 53 35 82t86 29q27 0 53 -10q25 -9 43 -31q16 -18 26.5 -53t10.5 -74q0 -66 -16 -115q-16 -51 -57 -98q-41 -49 -99 -84q-58 -37 -141 -61v77zM496 -238q96 29 139 70 q47 43 47 98q0 25 -20 41q-8 8 -44 29q-25 15 -43 37q-18 20 -18 63q0 53 35 82t86 29q27 0 53 -10q23 -8 41 -31q20 -23 29 -53q10 -35 10 -74q0 -59 -18.5 -114.5t-55.5 -98.5q-41 -49 -98 -84t-143 -61v77z" />
<glyph unicode="&#x2022;" horiz-adv-x="716" d="M135 678q0 49 20.5 96t51.5 78t78 51q43 18 94 19q53 0 96 -19q47 -20 78 -51t51 -78q18 -43 18.5 -96t-18 -96t-51.5 -76q-35 -35 -78 -53.5t-96 -18.5q-51 0 -94 18.5t-78 53.5q-33 33 -51 76q-21 47 -21 96z" />
<glyph unicode="&#x2026;" horiz-adv-x="1820" d="M68 92q0 23 10 47.5t24.5 39t39 24.5t47 10t47 -10t38.5 -25q16 -18 27 -39q8 -18 8 -47t-8 -47q-10 -20 -26.5 -38.5t-38.5 -26.5q-18 -8 -47 -8.5t-48 8.5q-23 8 -39 26q-14 14 -24 38.5t-10 47.5zM754 92q0 23 10 47.5t24.5 39t39 24.5t47 10t47 -10t39.5 -25 q18 -18 26 -39q8 -18 8 -47t-8 -47q-8 -20 -26.5 -38.5t-38.5 -26.5q-18 -8 -47 -8.5t-48 8.5q-20 8 -39 26q-14 14 -24 38.5t-10 47.5zM1440 92q0 23 10 47.5t24.5 39t39 24.5t47 10t47 -10t39.5 -25q16 -18 26 -39q8 -18 8 -47t-8 -47q-10 -20 -26.5 -38.5t-38.5 -26.5 q-18 -8 -47 -8.5t-48 8.5q-23 8 -38 26q-14 14 -24.5 38.5t-10.5 47.5z" />
<glyph unicode="&#x202f;" horiz-adv-x="350" />
<glyph unicode="&#x2039;" horiz-adv-x="681" d="M111 430l12 66l416 356h61l-319 -395l182 -383h-62z" />
<glyph unicode="&#x203a;" horiz-adv-x="681" d="M82 74l321 395l-184 383h62l290 -356l-10 -66l-418 -356h-61z" />
<glyph unicode="&#x2044;" horiz-adv-x="339" d="M-260 0h-102l964 1341h100z" />
<glyph unicode="&#x2215;" horiz-adv-x="339" d="M-260 0h-102l964 1341h100z" />
<glyph unicode="&#x205f;" horiz-adv-x="438" />
<glyph unicode="&#x20ac;" d="M25 502l14 82h104q2 14 6.5 42.5t6.5 37.5q6 45 18 84h-106l14 81h113q76 266 229 398q150 129 360 129q35 0 93 -4q29 -2 81 -11q20 -4 74 -16q41 -10 72 -20l-41 -252h-68l4 133q-37 43 -92 67q-51 23 -114 23q-70 0 -123 -23q-55 -23 -107 -77q-51 -53 -90 -140 q-43 -94 -72 -207h351l-15 -81h-354q-9 -37 -18 -80q-4 -16 -8.5 -48t-4.5 -36h357l-17 -82h-350q-2 -18 -2 -51v-50q0 -176 63.5 -260t176.5 -84q88 0 147 29q66 31 107 72l53 159h67l-53 -274q-68 -25 -160 -45q-86 -18 -184 -18t-178 30q-76 29 -133 92q-55 61 -82 146 q-31 96 -31 198q0 4 1 12.5t1 14.5v29h-110z" />
<glyph unicode="&#x2122;" horiz-adv-x="2004" d="M127 1143v198h709v-198h-41l-17 125q-16 4 -76 8q-37 2 -124 2h-29v-682l127 -16v-43h-391v43l127 16v684h-31q-61 0 -127 -4q-53 -4 -70 -8l-16 -125h-41zM922 537v43l102 16v688l-102 16v41h270l244 -583l264 583h254v-41l-103 -16v-688l103 -16v-43h-348v43l106 16 v608l-303 -667h-27l-284 669v-610l108 -16v-43h-284z" />
<glyph unicode="&#xe000;" horiz-adv-x="940" d="M0 940h940v-940h-940v940z" />
<glyph unicode="&#xf001;" d="M23 -436l225 1292h-162l8 49l170 39l12 66q25 125 56 192q39 86 92 135q57 55 133 78q86 27 184 27q57 0 101 -6q74 -10 80 -13l-35 -196h-68l-24 114q-14 6 -47 15q-27 6 -66 6q-45 0 -82 -16.5t-61 -47.5q-25 -29 -47 -81q-20 -49 -37 -121l-27 -156h467l-154 -870 l158 -25l-8 -45h-328l152 856h-301l-226 -1292h-165z" />
<glyph unicode="&#xfb01;" d="M23 -436l225 1292h-162l8 49l170 39l12 66q25 125 56 192q39 86 92 135q57 55 133 78q86 27 184 27q57 0 101 -6q74 -10 80 -13l-35 -196h-68l-24 114q-14 6 -47 15q-27 6 -66 6q-45 0 -82 -16.5t-61 -47.5q-25 -29 -47 -81q-20 -49 -37 -121l-27 -156h467l-154 -870 l158 -25l-8 -45h-328l152 856h-301l-226 -1292h-165z" />
<glyph unicode="&#xf002;" d="M23 -436l225 1292h-162l8 49l170 39l12 66q23 123 54 196q35 84 88 135.5t135 75.5q80 25 192 25q8 0 29 -1t33 -1q49 0 72 -2q10 0 31.5 -1t31.5 -3q6 0 15.5 -1t14.5 -2t9 -1l-240 -1360l158 -25l-8 -45h-328l236 1339v2q-14 6 -47 15q-27 6 -66 6q-45 0 -84 -16 q-37 -16 -63 -48q-25 -29 -47 -81q-20 -49 -37 -121l-27 -156h209l-14 -84h-209l-226 -1292h-165z" />
<glyph unicode="&#xfb02;" d="M23 -436l225 1292h-162l8 49l170 39l12 66q23 123 54 196q35 84 88 135.5t135 75.5q80 25 192 25q8 0 29 -1t33 -1q49 0 72 -2q10 0 31.5 -1t31.5 -3q6 0 15.5 -1t14.5 -2t9 -1l-240 -1360l158 -25l-8 -45h-328l236 1339v2q-14 6 -47 15q-27 6 -66 6q-45 0 -84 -16 q-37 -16 -63 -48q-25 -29 -47 -81q-20 -49 -37 -121l-27 -156h209l-14 -84h-209l-226 -1292h-165z" />
<glyph unicode="&#xfb03;" horiz-adv-x="1705" d="M1254 0l151 870l-129 25l8 45h299l-151 -870l156 -25l-9 -45h-325zM1430 1247q0 23 8 41q8 23 23 35q14 14 34 25q16 8 41 8t43.5 -8.5t34.5 -24.5q12 -12 23 -35q10 -25 10 -41q0 -20 -10 -41q-12 -25 -23 -35q-16 -16 -34.5 -24t-43 -8t-41.5 8q-20 10 -34 24 q-10 10 -23 35q-8 16 -8 41zM592 -436l225 1292h-162l8 49l170 39l12 66q41 225 134 327q94 104 256 105q46 0 79 -6q51 -10 60 -13l-35 -196h-49l-19 114q-27 20 -84 21q-33 0 -59.5 -16.5t-42.5 -47.5q-23 -41 -33 -81q-18 -74 -26 -121l-29 -156h209l-14 -84h-209 l-226 -1292h-165zM23 -436l225 1292h-162l8 49l170 39l12 66q41 225 134 327q94 104 256 105q46 0 79 -6q51 -10 60 -13l-35 -196h-49l-19 114q-27 20 -84 21q-33 0 -59.5 -16.5t-42.5 -47.5q-23 -41 -33 -81q-18 -74 -26 -121l-29 -156h209l-14 -84h-209l-226 -1292h-165z " />
<glyph unicode="&#xfb04;" horiz-adv-x="1705" d="M1248 0l237 1352l-129 24l8 45h299l-237 -1351l157 -25l-8 -45h-327zM592 -436l225 1292h-162l8 49l170 39l12 66q41 225 134 327q94 104 256 105q46 0 79 -6q51 -10 60 -13l-35 -196h-49l-19 114q-27 20 -84 21q-33 0 -59.5 -16.5t-42.5 -47.5q-23 -41 -33 -81 q-18 -74 -26 -121l-29 -156h209l-14 -84h-209l-226 -1292h-165zM23 -436l225 1292h-162l8 49l170 39l12 66q41 225 134 327q94 104 256 105q46 0 79 -6q51 -10 60 -13l-35 -196h-49l-19 114q-27 20 -84 21q-33 0 -59.5 -16.5t-42.5 -47.5q-23 -41 -33 -81q-18 -74 -26 -121 l-29 -156h209l-14 -84h-209l-226 -1292h-165z" />
<glyph horiz-adv-x="612" d="M524 694l-28 -159h-142l29 159h-367l19 97l497 550h107l-96 -544h121l-19 -103h-121zM469 1176h-2l-344 -379h278z" />
</font>
</defs>
</svg>
